<?xml version="1.0" standalone="no"?>
<!DOCTYPE svg PUBLIC "-//W3C//DTD SVG 20010904//EN"
 "http://www.w3.org/TR/2001/REC-SVG-20010904/DTD/svg10.dtd">
<svg version="1.0" xmlns="http://www.w3.org/2000/svg"
 width="613.000000pt" height="613.000000pt" viewBox="0 0 613.000000 613.000000"
 preserveAspectRatio="xMidYMid meet">
<metadata>
Created by potrace 1.14, written by Peter Selinger 2001-2017
</metadata>
<g transform="translate(0.000000,613.000000) scale(0.100000,-0.100000)"
fill="#000000" stroke="none">
<path d="M2013 5039 c-33 -17 -41 -54 -39 -179 l3 -115 62 -123 c33 -67 79
-168 102 -225 74 -186 164 -359 249 -477 88 -124 137 -205 192 -315 67 -134
138 -342 153 -450 4 -22 8 -47 10 -55 3 -8 7 -33 10 -55 13 -88 98 -409 149
-565 30 -91 58 -188 62 -215 3 -28 8 -59 11 -70 10 -41 14 -470 5 -484 -10
-13 -145 -24 -137 -11 2 4 -2 7 -9 7 -8 0 -13 -7 -11 -16 1 -9 8 -15 14 -14 6
2 11 -2 11 -8 0 -5 5 -7 10 -4 6 4 7 11 4 17 -4 6 1 6 14 -1 12 -6 26 -19 31
-29 13 -22 14 -7 1 17 -7 15 -5 18 15 17 13 -1 28 -6 32 -10 4 -5 2 -6 -5 -2
-7 5 -15 -2 -21 -17 -10 -27 -46 -30 -62 -6 -12 19 -11 2 1 -21 11 -21 -13
-50 -25 -30 -7 12 -25 4 -25 -11 0 -6 5 -7 12 -3 6 4 8 3 5 -4 -4 -5 -16 -8
-27 -5 -12 3 -20 0 -20 -6 0 -7 5 -9 13 -5 8 5 8 2 -2 -9 -14 -18 -26 -23 -16
-8 3 6 -4 9 -15 8 -21 -1 -28 -17 -7 -17 8 0 7 -4 -3 -10 -8 -5 -10 -10 -5
-10 6 0 1 -7 -9 -15 -14 -11 -23 -12 -33 -4 -19 16 -16 4 4 -17 16 -16 16 -16
-7 -9 -23 7 -24 6 -11 -9 8 -9 10 -16 5 -15 -21 4 -28 -2 -14 -12 13 -9 12
-10 -2 -5 -10 3 -20 1 -23 -4 -4 -6 2 -10 12 -10 15 0 16 -2 3 -10 -8 -5 -11
-10 -7 -10 4 0 3 -8 -2 -18 -7 -13 -6 -23 2 -32 9 -10 9 -11 0 -6 -6 3 -14 2
-18 -4 -3 -6 1 -13 10 -16 11 -5 13 -9 6 -14 -20 -12 25 -58 54 -55 14 2 25
-2 25 -8 0 -8 3 -8 12 1 9 9 14 8 22 -4 11 -15 51 -10 41 5 -5 10 47 7 63 -3
7 -4 12 -2 12 6 0 10 2 10 9 -1 6 -9 10 -10 16 -2 5 9 10 9 20 1 10 -8 15 -8
20 0 4 7 11 8 18 2 7 -5 20 -8 29 -7 9 2 22 -3 29 -11 8 -10 8 -14 0 -14 -6 0
-11 5 -11 12 0 6 -3 8 -7 4 -8 -8 -13 -36 -7 -36 10 0 64 31 64 36 0 3 -4 3
-9 -1 -5 -3 -12 -2 -15 3 -3 5 2 9 10 9 9 0 20 -10 24 -22 6 -17 15 -22 35
-20 23 3 24 1 13 -12 -11 -14 -10 -15 9 -9 15 5 25 2 32 -11 8 -14 10 -15 11
-3 0 13 2 13 9 1 5 -8 18 -16 27 -17 10 -2 24 -10 30 -18 6 -9 14 -14 17 -11
4 3 5 2 2 -2 -11 -14 -34 -11 -28 3 3 8 0 14 -7 14 -6 0 -8 -4 -5 -10 3 -5 3
-10 -2 -11 -57 -7 -62 -6 -52 12 6 11 6 20 -1 24 -9 6 -14 -8 -11 -27 0 -5 -4
-8 -10 -8 -6 0 -8 8 -5 18 5 15 4 15 -8 -1 -8 -11 -12 -26 -9 -34 3 -8 9 -11
12 -6 3 5 38 8 78 8 47 -1 69 3 65 10 -3 5 5 3 18 -6 22 -14 69 -16 395 -13
204 2 406 4 450 6 44 2 85 1 90 -2 19 -10 1228 -8 1269 2 50 12 128 63 186
120 55 54 136 207 179 335 56 169 75 296 76 503 0 174 -7 307 -19 340 -3 8 -7
26 -10 40 -29 171 -140 388 -285 559 -116 137 -311 310 -494 440 -116 81 -361
227 -462 275 -151 72 -200 98 -252 137 -58 43 -143 127 -182 179 -105 141
-320 258 -636 345 -73 20 -130 55 -148 92 -8 16 -17 55 -20 89 -11 127 -69
183 -176 169 -129 -17 -150 -13 -228 38 -40 26 -117 79 -170 118 -54 39 -109
76 -123 81 -14 6 -72 14 -130 18 -58 5 -149 20 -203 34 -112 29 -365 45 -404
25z m792 -3789 c3 -5 1 -10 -4 -10 -6 0 -11 5 -11 10 0 6 2 10 4 10 3 0 8 -4
11 -10z"/>
<path d="M2497 1703 c-3 -3 -22 -5 -42 -5 -33 0 -41 -9 -12 -14 7 -1 21 -5 32
-9 16 -6 17 -5 5 4 -12 8 -8 10 18 6 17 -2 32 0 32 5 0 10 -26 21 -33 13z"/>
<path d="M2544 1699 c-6 -10 36 -29 49 -22 4 2 18 6 32 9 26 5 45 -13 23 -21
-18 -7 -21 -44 -3 -41 19 3 32 16 17 16 -9 0 -9 5 0 20 7 11 19 18 26 15 7 -3
11 -1 8 4 -4 5 4 7 16 3 16 -4 19 -2 13 8 -5 8 -4 11 3 6 6 -4 9 -13 6 -21 -5
-12 3 -13 34 -6 2 1 -4 8 -12 17 -18 17 -83 27 -92 13 -3 -5 -12 -5 -23 0 -10
6 -23 6 -31 1 -8 -5 -19 -6 -25 -2 -16 10 -34 11 -41 1z m146 -3 c0 -2 -7 -7
-16 -10 -8 -3 -12 -2 -9 4 6 10 25 14 25 6z"/>
<path d="M2794 1698 c3 -10 1 -18 -4 -18 -6 0 -10 5 -10 10 0 6 -5 10 -11 10
-8 0 -8 -4 0 -14 17 -20 -15 -40 -44 -26 -16 7 -49 3 -52 -7 -3 -7 5 -11 16
-10 12 1 21 6 21 11 0 5 6 1 14 -9 8 -11 12 -26 9 -35 -2 -8 2 -4 10 9 9 15
17 20 21 12 4 -6 2 -11 -4 -11 -6 0 -8 -5 -4 -11 5 -8 9 -8 14 1 5 8 9 7 13
-5 5 -10 3 -14 -5 -9 -7 5 -8 2 -3 -7 6 -11 5 -12 -6 -1 -20 19 -31 14 -17 -7
11 -19 13 -19 48 9 26 20 40 26 47 19 8 -8 13 -7 18 2 6 8 4 10 -5 4 -9 -6
-12 -4 -8 7 4 8 2 21 -4 29 -8 11 -9 11 -5 -3 4 -12 1 -16 -14 -13 -10 2 -19
0 -19 -6 0 -13 -27 -11 -36 3 -5 8 -2 9 10 5 9 -4 14 -3 11 2 -3 5 -1 12 5 16
6 4 7 11 4 17 -4 7 -2 8 5 4 6 -4 9 -11 6 -16 -3 -5 -1 -11 5 -15 18 -11 10
19 -11 45 -14 16 -19 19 -15 8z m-4 -32 c0 -2 -8 -10 -17 -17 -16 -13 -17 -12
-4 4 13 16 21 21 21 13z m25 -56 c-3 -5 -12 -10 -18 -10 -7 0 -6 4 3 10 19 12
23 12 15 0z"/>
<path d="M2174 1690 c-10 -3 -38 -6 -61 -5 -29 1 -43 -2 -43 -11 0 -7 -4 -15
-9 -19 -6 -3 -8 3 -6 13 2 11 -3 19 -11 19 -17 0 -19 -17 -1 -17 6 0 -3 -8
-20 -16 -38 -19 -42 -29 -13 -31 11 -1 18 2 15 7 -10 17 17 22 34 6 15 -14 18
-14 18 -1 0 8 -5 12 -11 9 -6 -3 -3 1 6 9 10 8 17 16 15 18 -1 3 6 -4 16 -15
19 -21 37 -15 19 7 -9 10 -1 13 38 13 27 0 48 -4 47 -9 -1 -5 4 -12 12 -15 8
-2 11 0 7 6 -3 6 -1 14 5 18 8 5 9 3 4 -7 -7 -12 -6 -12 7 -1 13 10 22 11 37
3 12 -7 22 -7 25 -2 4 5 0 11 -6 14 -7 3 -3 4 9 4 12 -1 19 -5 16 -10 -3 -5 4
-4 16 2 17 10 20 9 15 -4 -4 -8 -1 -15 6 -15 6 0 9 4 5 9 -3 5 -1 12 5 16 13
8 52 -13 45 -25 -3 -5 -2 -11 3 -14 4 -2 14 4 21 16 7 11 8 17 3 14 -6 -3 -16
0 -24 7 -14 14 -115 17 -135 4 -7 -5 -13 -4 -13 2 0 10 -25 9 -36 -2 -10 -10
-26 -9 -20 1 6 10 -13 11 -40 2z"/>
<path d="M1806 1672 c-3 -5 -17 -8 -31 -7 -16 2 -25 -2 -25 -11 0 -17 12 -18
30 -1 12 10 12 9 2 -4 -6 -9 -9 -19 -5 -23 4 -4 0 -4 -9 -1 -19 8 -55 -49 -38
-60 9 -6 14 7 11 27 0 4 6 5 13 2 10 -4 22 8 36 33 12 21 19 30 16 21 -3 -12
-1 -15 10 -11 7 3 14 0 14 -7 0 -6 -4 -9 -8 -6 -4 2 -14 1 -21 -3 -9 -6 -10
-11 -2 -15 6 -4 11 -2 11 3 0 6 8 3 18 -6 20 -19 21 -30 9 -50 -5 -8 -4 -13 2
-13 10 0 13 7 10 26 0 4 5 11 13 15 7 5 9 9 3 9 -27 1 -37 17 -25 40 10 18 9
21 -1 15 -8 -5 -10 -4 -5 3 13 22 25 12 21 -17 -3 -24 0 -29 16 -28 10 1 19 7
19 14 0 7 -4 12 -9 11 -5 -2 -9 0 -10 5 -3 25 1 28 14 11 15 -19 15 -19 9 1
-5 18 -4 18 6 2 6 -9 9 -21 5 -26 -3 -5 0 -13 6 -17 8 -5 9 -3 4 6 -5 8 -4 11
2 7 5 -3 10 0 10 8 0 8 -3 15 -7 15 -4 0 -7 7 -7 16 0 14 2 14 15 -2 10 -13
13 -14 9 -3 -3 11 2 15 18 15 18 0 22 -5 19 -20 -3 -19 -1 -18 17 4 11 14 17
19 13 11 -5 -9 -3 -12 4 -7 26 16 9 23 -47 22 -33 0 -63 -4 -67 -8 -4 -4 -13
-3 -21 3 -9 8 -17 8 -26 0 -10 -7 -17 -7 -24 0 -7 7 -13 7 -17 1z m-36 -62 c0
-5 -4 -10 -10 -10 -5 0 -10 5 -10 10 0 6 5 10 10 10 6 0 10 -4 10 -10z"/>
<path d="M2375 1671 c8 -13 -12 -24 -27 -14 -19 11 -37 12 -44 2 -3 -5 -12 -5
-23 0 -13 7 -24 6 -40 -5 -17 -12 -25 -13 -36 -4 -20 16 -74 20 -68 4 8 -21
-19 -28 -34 -9 -13 19 -18 10 -14 -23 2 -9 -4 -12 -18 -7 -15 4 -19 2 -16 -12
2 -10 4 -20 4 -23 1 -3 5 1 10 8 4 7 14 14 22 15 8 2 20 6 27 10 6 5 12 4 12
-1 0 -5 6 -9 14 -9 8 0 12 6 9 14 -3 7 1 13 8 13 12 0 12 2 1 9 -11 7 -11 9 1
14 12 4 15 0 12 -14 -3 -13 0 -19 8 -16 7 3 11 10 9 16 -2 8 6 7 20 -3 12 -9
27 -16 33 -16 5 0 3 5 -5 11 -12 9 -12 10 4 5 10 -4 25 -1 33 6 11 9 13 9 11
-2 -2 -7 3 -15 10 -17 7 -3 12 -1 11 4 -4 21 2 34 12 27 7 -4 7 -9 2 -13 -6
-3 -2 -15 9 -26 20 -20 20 -20 16 0 -2 14 3 20 19 21 13 1 28 -5 34 -12 9 -11
9 -14 0 -14 -8 0 -8 -4 1 -14 14 -15 21 -13 24 9 1 8 -3 15 -9 15 -5 0 -7 3
-4 7 4 3 2 12 -4 20 -6 7 -8 13 -3 13 11 0 -18 20 -29 20 -5 0 -6 -4 -2 -9z
m-105 -21 c0 -5 -5 -10 -11 -10 -5 0 -7 5 -4 10 3 6 8 10 11 10 2 0 4 -4 4
-10z m75 1 c3 -5 2 -12 -3 -15 -5 -3 -9 1 -9 9 0 17 3 19 12 6z m56 -8 c12
-16 12 -17 -2 -6 -9 7 -20 9 -24 5 -5 -4 -5 -1 -1 6 9 16 11 15 27 -5z"/>
<path d="M2506 1672 c-5 -5 -20 -7 -60 -11 -5 -1 -3 -7 3 -14 6 -8 8 -17 5
-20 -4 -3 3 -5 15 -4 19 1 25 9 23 29 -1 3 5 9 13 12 9 3 12 0 8 -10 -7 -20 7
-18 23 4 12 14 13 15 8 1 -3 -10 -1 -20 5 -24 7 -3 8 0 5 9 -3 9 -1 16 6 16 6
0 8 -5 5 -10 -8 -12 17 -9 26 3 3 5 9 2 12 -6 4 -11 0 -15 -13 -12 -13 3 -18
-2 -17 -16 1 -19 17 -28 17 -9 0 6 5 10 11 10 5 0 7 -4 4 -10 -3 -5 0 -7 8 -4
8 3 20 -2 27 -11 18 -22 32 -19 18 4 -7 11 -14 19 -17 19 -27 -2 -33 3 -21 17
7 8 9 15 4 15 -5 0 -1 7 10 15 18 13 18 14 -3 12 -11 -1 -21 -4 -21 -8 0 -7
-13 -6 -77 5 -12 2 -24 2 -27 -2z m-21 -30 c-3 -3 -11 0 -18 7 -9 10 -8 11 6
5 10 -3 15 -9 12 -12z"/>
<path d="M1710 1661 c0 -5 -13 -7 -29 -5 -26 3 -29 1 -27 -26 1 -29 6 -36 19
-24 3 4 2 14 -3 24 -6 12 -5 17 6 17 7 0 14 -4 14 -9 0 -4 4 -7 9 -5 5 1 9 -1
10 -5 3 -26 -1 -29 -14 -12 -11 13 -14 14 -13 4 2 -8 10 -20 18 -27 8 -7 10
-13 5 -13 -6 0 -17 6 -24 13 -11 10 -12 9 -6 -2 5 -9 4 -12 -2 -8 -5 3 -10 0
-10 -7 0 -9 9 -13 23 -10 13 2 25 0 29 -6 3 -5 0 -7 -9 -4 -17 7 -16 -12 3
-41 12 -19 12 -19 6 -1 -3 11 0 23 6 27 7 4 8 12 3 20 -12 20 -14 39 -3 39 6
0 8 4 5 9 -3 5 1 11 9 15 8 3 12 12 9 20 -6 16 -34 30 -34 17z"/>
<path d="M2878 1663 c6 -2 9 -10 6 -15 -4 -7 -2 -8 5 -4 13 9 5 26 -12 25 -9
0 -8 -2 1 -6z"/>
<path d="M1560 1652 c0 -5 -25 -7 -55 -6 -32 1 -55 -2 -55 -8 0 -6 -6 -6 -14
1 -8 7 -17 8 -20 3 -3 -5 -28 -8 -56 -7 -27 2 -50 0 -50 -4 0 -4 -24 -7 -54
-7 -30 1 -52 -2 -50 -5 2 -4 -19 -6 -46 -4 -28 2 -50 0 -50 -4 0 -4 -20 -7
-44 -6 -35 1 -43 -1 -41 -14 2 -9 4 -18 4 -20 1 -2 11 4 23 15 12 10 18 13 13
5 -6 -10 -4 -12 5 -6 19 12 73 14 92 4 10 -5 19 -5 22 0 4 5 0 11 -6 14 -7 3
1 4 17 2 17 -1 37 2 45 9 13 10 13 9 1 -6 -9 -12 -10 -18 -2 -18 6 0 14 7 17
15 5 12 9 11 27 -5 22 -22 37 -19 19 3 -9 10 -8 14 3 14 8 0 11 -5 8 -10 -3
-6 -1 -7 5 -3 8 5 10 1 6 -11 -6 -16 -4 -15 10 2 10 11 14 13 10 5 -7 -13 -5
-13 9 -1 9 7 14 18 10 24 -3 6 -1 7 6 3 6 -4 9 -11 6 -16 -3 -5 4 -8 15 -7 11
1 20 7 20 14 0 6 5 15 11 18 13 9 8 -27 -5 -37 -14 -10 -16 -40 -3 -35 7 2 13
9 13 15 1 7 3 15 4 20 1 4 2 10 1 15 0 4 4 7 10 7 6 0 8 -8 5 -17 -5 -16 -4
-15 9 1 8 10 12 23 9 28 -11 18 22 2 34 -17 10 -15 12 -16 8 -3 -3 10 0 20 6
24 7 5 8 2 3 -6 -5 -9 -4 -11 3 -6 8 5 10 1 6 -11 -5 -15 -4 -15 4 -3 6 8 8
18 6 22 -3 4 0 8 5 8 14 0 14 -6 1 -30 -7 -13 -7 -21 0 -25 9 -6 14 8 11 28 0
4 3 7 7 7 4 0 8 9 9 20 1 11 0 20 -3 20 -2 0 -4 -4 -4 -8z m-204 -34 c3 -4 -1
-5 -10 -4 -8 1 -18 5 -22 8 -3 4 1 5 10 4 8 -1 18 -5 22 -8z"/>
<path d="M1586 1648 c2 -4 13 -5 24 -3 17 3 19 1 9 -17 -8 -15 -8 -19 0 -14
10 6 15 -6 12 -26 0 -5 5 -8 12 -8 8 0 7 -4 -3 -10 -13 -9 -13 -10 0 -10 12 0
12 -2 2 -9 -10 -6 -9 -11 4 -22 16 -12 17 -12 12 2 -4 9 -1 16 7 16 7 0 11 -6
8 -14 -3 -7 0 -13 6 -13 6 0 10 -3 10 -7 -6 -38 26 -40 58 -4 23 27 31 47 13
36 -5 -3 -10 -1 -10 5 0 7 7 10 14 7 10 -4 13 -1 10 7 -3 8 -1 17 5 21 7 4 8
-1 4 -12 -6 -16 -4 -16 17 2 13 11 20 15 17 8 -4 -6 -1 -14 5 -17 7 -3 4 -4
-6 -3 -10 1 -21 -4 -24 -12 -2 -8 0 -11 6 -8 5 4 15 0 22 -8 9 -10 9 -15 1
-15 -6 0 -11 4 -11 8 0 5 -7 9 -16 9 -15 0 -15 -1 0 -12 8 -7 13 -14 11 -17
-3 -3 1 -11 10 -18 14 -12 20 -5 17 22 -1 3 5 9 14 12 12 5 13 2 3 -17 -6 -12
-8 -19 -4 -15 5 4 14 3 21 -3 7 -6 14 -6 18 -1 3 6 -1 12 -9 16 -14 5 -11 36
3 34 20 -2 32 3 27 12 -3 5 -11 8 -18 6 -7 -1 -9 -1 -4 1 4 3 4 10 0 16 -4 7
0 7 10 -1 14 -12 16 -11 14 6 -1 22 -33 26 -35 5 -1 -7 -3 -20 -4 -28 -2 -16
-25 -28 -39 -19 -6 4 -6 10 0 18 23 28 -29 56 -60 33 -17 -13 -43 -56 -44 -72
0 -10 -8 -15 -25 -15 -5 0 -9 3 -9 8 1 4 0 10 -1 15 -1 4 -3 13 -4 20 0 6 -7
12 -15 12 -13 0 -20 17 -23 53 -1 6 -5 12 -10 12 -4 0 -8 5 -8 11 0 5 4 7 10
4 5 -3 7 0 4 8 -3 9 -17 14 -34 13 -15 0 -26 -4 -24 -8z"/>
<path d="M1942 1639 c-12 -19 -6 -24 21 -20 4 0 7 -4 7 -10 0 -5 4 -8 9 -4 6
3 14 -3 20 -12 8 -14 11 -15 11 -3 0 12 3 11 11 -3 6 -10 16 -14 22 -10 7 3 3
-3 -7 -15 -11 -12 -14 -22 -8 -22 6 0 14 5 17 10 4 6 11 8 16 5 5 -4 9 -1 9 4
0 6 4 11 9 11 6 0 8 -9 6 -20 -2 -12 0 -18 6 -15 5 4 7 11 4 16 -4 5 -1 9 5 9
6 0 9 4 5 9 -10 18 18 24 31 7 6 -9 14 -13 17 -9 17 27 -46 40 -72 16 -9 -10
-17 -11 -25 -3 -7 5 -16 7 -19 3 -4 -3 -7 -1 -7 5 0 7 4 12 8 12 4 0 8 9 9 20
1 11 -2 20 -8 20 -5 0 -8 -3 -8 -7 4 -25 -2 -35 -13 -25 -7 6 -17 11 -23 11
-29 3 -47 14 -35 21 7 4 8 10 3 13 -5 3 -14 -3 -21 -14z"/>
<path d="M1574 1631 c3 -4 1 -13 -4 -21 -13 -21 8 -54 25 -40 9 8 14 7 18 -4
4 -10 1 -13 -7 -10 -8 3 -17 0 -22 -7 -5 -9 -2 -10 9 -6 10 3 17 2 17 -3 0 -6
-3 -11 -7 -11 -34 -6 -53 -5 -53 3 0 5 -5 6 -11 2 -8 -4 -3 -11 12 -19 19 -11
27 -10 44 1 20 13 22 12 20 -7 -1 -11 -8 -25 -16 -31 -11 -7 -9 -8 6 -3 11 4
26 8 33 8 17 1 15 7 -5 24 -16 13 -16 13 5 3 12 -6 22 -15 22 -21 0 -6 4 -8
10 -4 5 3 7 12 4 20 -4 8 -10 13 -14 10 -15 -9 -37 23 -35 52 1 27 -9 43 -30
43 -5 0 -4 -4 3 -9 11 -7 11 -9 -2 -14 -8 -3 -18 -1 -22 5 -5 7 -2 8 6 3 9 -5
11 -4 6 4 -4 6 0 14 8 17 22 9 20 19 -4 21 -11 1 -18 -2 -16 -6z"/>
<path d="M2433 1620 c1 -11 5 -20 9 -20 4 0 8 -5 8 -12 0 -6 -3 -8 -7 -5 -3 4
-12 2 -19 -3 -15 -13 -46 14 -38 33 3 8 -4 13 -17 14 -19 2 -20 0 -6 -15 8 -9
13 -25 12 -34 -2 -10 1 -18 6 -18 6 0 7 -5 3 -12 -4 -7 -3 -8 5 -4 6 4 9 12 6
17 -4 5 -1 9 4 9 6 0 11 -5 11 -11 0 -5 4 -8 9 -4 5 3 12 1 16 -5 3 -5 11 -10
17 -10 6 0 3 10 -8 22 -10 12 -14 18 -7 15 6 -4 16 0 22 10 8 14 11 15 11 3 0
-12 3 -11 11 3 6 9 14 15 20 12 5 -4 9 -2 9 4 0 5 15 8 33 6 28 -4 30 -3 12 7
-24 14 -56 18 -49 6 3 -4 0 -9 -5 -9 -21 -3 -26 -4 -38 -12 -12 -7 -18 3 -14
26 0 4 -3 7 -8 7 -6 0 -9 -9 -8 -20z"/>
<path d="M2673 1625 c-14 -11 -15 -16 -5 -28 17 -21 -3 -33 -25 -15 -9 7 -34
14 -57 16 -23 1 -45 3 -51 3 -17 2 -40 -5 -47 -16 -4 -5 -12 -11 -18 -11 -21
-3 -22 -4 -12 -17 8 -9 5 -24 -13 -55 -13 -23 -20 -42 -15 -42 5 0 12 5 15 10
4 6 10 8 15 5 5 -3 9 5 8 17 -2 48 1 53 18 32 8 -10 13 -13 9 -7 -9 19 -15 57
-8 49 9 -9 15 -35 15 -64 0 -21 1 -22 13 -5 10 13 10 20 2 25 -7 4 -8 8 -3 8
4 0 1 12 -9 26 -9 15 -12 24 -7 20 6 -3 13 -2 17 4 4 6 11 7 17 4 7 -5 8 -2 3
6 -6 9 -4 11 4 5 9 -5 10 -10 2 -18 -16 -16 -14 -32 2 -18 8 6 18 7 22 3 5 -4
5 1 2 11 -6 15 -4 16 14 7 15 -9 24 -8 37 2 9 7 13 8 9 2 -9 -15 13 -31 40
-28 12 0 24 -5 27 -13 6 -15 26 -9 26 8 0 6 -4 8 -9 5 -5 -3 -14 1 -21 9 -9
10 -9 15 -1 15 6 0 11 -6 11 -12 0 -10 2 -10 8 0 6 9 12 5 20 -13 7 -15 8 -24
3 -20 -12 7 -24 -12 -16 -25 3 -5 11 -7 18 -4 17 6 16 66 -1 86 -7 9 -11 21
-10 28 4 17 -27 21 -49 5z m41 -10 c-3 -7 2 -18 11 -25 8 -7 15 -18 15 -24 0
-6 -5 -4 -10 4 -5 8 -13 15 -17 16 -19 2 -43 17 -43 26 0 6 8 4 17 -3 14 -12
16 -12 11 2 -4 9 -1 16 7 16 7 0 11 -6 9 -12z"/>
<path d="M2196 1623 c-10 -10 -7 -35 3 -28 5 3 13 0 17 -6 4 -8 9 -7 15 2 8
12 10 12 18 0 6 -9 11 -10 15 -2 4 6 12 9 17 6 10 -7 13 18 3 28 -4 3 -15 2
-25 -4 -13 -6 -25 -6 -38 0 -10 6 -21 7 -25 4z"/>
<path d="M1470 1612 c0 -5 -10 -19 -22 -32 -13 -14 -22 -28 -21 -31 1 -4 -4
-10 -12 -13 -8 -3 -14 0 -12 7 1 7 -4 11 -12 9 -11 -2 -12 0 -3 10 17 22 -18
40 -42 22 -11 -7 -23 -11 -27 -8 -5 3 -9 0 -9 -6 0 -6 6 -10 13 -8 6 1 22 -3
35 -10 12 -7 26 -10 31 -7 5 3 7 -5 3 -17 -3 -14 -1 -19 6 -14 15 9 23 -7 12
-24 -7 -11 -11 -11 -24 -1 -9 8 -16 9 -16 3 0 -5 8 -13 17 -16 20 -8 46 21 39
41 -3 7 -1 15 5 18 5 4 7 11 4 16 -6 8 9 13 19 7 2 -2 13 5 24 15 15 14 22 15
28 6 5 -8 3 -10 -7 -4 -12 8 -12 6 0 -8 8 -10 11 -20 8 -24 -4 -3 -2 -12 5
-20 8 -10 8 -12 -4 -8 -11 4 -14 -2 -14 -24 0 -22 4 -29 18 -28 10 1 21 10 24
20 5 15 8 17 15 6 4 -7 11 -10 16 -6 8 9 -17 28 -28 21 -12 -7 -18 23 -7 34 7
7 17 8 29 2 13 -7 17 -6 15 5 -2 17 -26 44 -26 30 0 -4 -9 0 -21 11 -12 10
-23 18 -25 17 -11 -7 -24 -2 -19 7 3 6 1 10 -4 10 -6 0 -11 -4 -11 -8z m-96
-43 c-3 -5 -10 -7 -15 -3 -5 3 -7 10 -3 15 3 5 10 7 15 3 5 -3 7 -10 3 -15z
m155 -20 c-13 -25 -14 -24 -14 10 -1 23 2 28 12 19 9 -7 10 -15 2 -29z m1 -59
c0 -5 -4 -10 -10 -10 -5 0 -10 5 -10 10 0 6 5 10 10 10 6 0 10 -4 10 -10z"/>
<path d="M2164 1595 c4 -31 -21 -56 -30 -31 -3 9 -11 16 -17 16 -6 0 -7 -3 -4
-6 3 -4 1 -16 -5 -28 -19 -33 -18 -45 3 -43 19 1 27 17 9 17 -5 0 -10 4 -10 9
0 4 8 8 18 8 34 0 43 3 38 12 -3 5 2 15 12 22 15 12 16 12 5 -2 -7 -9 -10 -19
-6 -23 4 -4 13 4 21 16 8 13 11 16 8 5 -5 -15 -2 -16 14 -7 14 8 26 8 40 0 16
-9 19 -8 14 7 -3 11 0 8 8 -5 8 -12 17 -20 21 -16 4 4 1 14 -6 22 -8 11 -9 14
0 9 7 -4 17 0 23 10 10 16 11 16 6 1 -8 -25 6 -28 28 -5 15 16 16 19 3 14 -8
-3 -21 1 -27 8 -15 18 -31 10 -24 -10 4 -10 0 -13 -15 -10 -11 2 -23 0 -25 -4
-6 -9 -36 -8 -51 1 -6 3 -18 4 -28 2 -12 -1 -17 2 -13 11 3 8 1 17 -4 20 -4 3
-7 -6 -6 -20z"/>
<path d="M1925 1596 c-14 -10 -15 -15 -5 -21 10 -6 9 -9 -1 -16 -10 -6 -7 -8
9 -6 24 1 27 8 11 24 -8 8 -7 13 2 18 8 6 10 4 4 -5 -5 -8 -4 -11 3 -6 6 3 13
2 17 -4 4 -6 11 -7 17 -4 5 4 3 -5 -6 -18 -9 -14 -13 -28 -9 -31 3 -4 1 -7 -6
-7 -7 0 -9 -5 -5 -11 4 -8 11 -3 20 12 7 13 10 27 8 31 -2 3 0 9 5 13 10 6 7
-25 -4 -48 -4 -6 1 -3 9 7 9 11 16 16 17 10 3 -39 22 -74 40 -74 4 0 -3 19
-16 42 -18 31 -21 46 -13 55 10 13 9 14 -12 17 -6 0 -15 8 -20 16 -5 8 -10 11
-10 7 0 -4 -8 -3 -19 2 -13 7 -23 6 -36 -3z"/>
<path d="M936 1588 c3 -5 -11 -7 -30 -5 -20 2 -36 1 -36 -3 0 -4 -11 -6 -24
-5 -14 2 -27 -3 -30 -10 -8 -21 6 -26 21 -7 8 9 11 11 8 4 -6 -11 -3 -12 11
-5 23 11 74 10 73 -1 -1 -10 21 -26 36 -26 6 0 3 5 -5 10 -8 5 -11 10 -6 10 5
0 3 6 -3 14 -9 10 -9 16 -1 21 6 4 18 -1 26 -11 15 -18 15 -18 10 1 -6 20 -6
20 9 1 24 -32 14 -51 -12 -25 -9 9 -12 7 -10 -9 2 -27 27 -25 45 3 l13 20 -5
-20 c-6 -20 -6 -20 9 -1 8 11 15 14 15 7 0 -9 6 -8 22 3 15 11 25 12 34 5 8
-7 14 -7 19 0 4 7 14 6 29 -4 24 -16 61 -11 50 7 -4 5 -10 5 -18 -1 -8 -7 -17
-6 -26 1 -12 8 -12 9 2 4 10 -3 20 -1 24 5 3 6 10 6 17 1 15 -11 47 -12 47 0
0 4 9 -1 20 -12 12 -12 26 -18 32 -14 6 4 8 3 5 -4 -10 -14 3 -43 15 -36 6 4
6 9 -2 14 -9 5 -9 9 -1 14 6 4 11 1 11 -6 0 -9 3 -9 10 2 6 9 10 10 10 3 0 -6
-5 -15 -11 -19 -8 -4 -7 -9 2 -15 12 -8 12 -11 -1 -18 -8 -5 -17 -8 -21 -5 -4
2 -7 -5 -6 -16 1 -11 7 -20 14 -20 7 0 12 6 11 13 -2 6 2 11 7 10 29 -5 41 -9
48 -18 4 -6 11 -3 17 7 7 10 17 15 27 11 9 -4 14 -2 10 3 -3 6 -1 16 5 24 8
12 9 12 4 -3 -3 -11 -2 -16 4 -12 9 6 14 -8 11 -27 0 -5 4 -8 10 -8 6 0 8 -8
5 -17 -5 -15 -4 -15 9 1 11 14 15 16 15 5 1 -10 3 -9 11 4 6 9 14 15 20 12 5
-4 9 -2 9 4 0 11 40 8 60 -4 9 -6 11 -4 5 5 -5 9 -4 11 4 6 9 -6 9 -11 1 -21
-9 -11 -7 -14 8 -12 24 1 26 36 2 38 -37 3 -40 5 -40 30 0 5 5 7 12 3 7 -5 8
-3 3 6 -6 10 -12 7 -25 -10 -11 -15 -22 -20 -30 -15 -9 5 -11 4 -6 -3 4 -7 2
-12 -3 -12 -21 0 -26 -2 -38 -12 -12 -10 -15 -5 -12 18 0 4 -5 11 -13 15 -11
7 -10 11 2 19 8 5 11 10 7 10 -4 0 -3 9 3 20 14 26 3 45 -16 29 -8 -6 -14 -8
-14 -3 0 4 -6 -1 -14 -12 -10 -13 -11 -23 -4 -31 7 -9 7 -13 -1 -13 -7 0 -10
-4 -7 -9 6 -10 -18 -23 -46 -26 -22 -3 -31 21 -18 45 8 15 6 22 -12 32 -13 6
-27 12 -33 13 -5 0 -20 10 -33 23 -19 19 -26 21 -38 11 -10 -8 -18 -8 -27 -1
-10 9 -19 8 -34 -3 -11 -8 -23 -12 -26 -9 -9 9 -77 12 -77 3 0 -4 -8 -6 -17
-4 -10 1 -23 -2 -30 -7 -7 -6 -16 -3 -25 9 -13 18 -93 29 -82 11z m358 -23 c3
-9 0 -12 -9 -9 -7 3 -16 12 -19 19 -3 9 0 12 9 9 7 -3 16 -12 19 -19z m188
-22 c-6 -3 -10 -8 -8 -12 3 -4 1 -13 -3 -19 -6 -10 -11 -9 -21 3 -11 13 -10
15 6 9 10 -4 16 -4 12 1 -4 4 -3 14 4 22 6 7 14 11 17 7 3 -4 0 -9 -7 -11z"/>
<path d="M764 1568 c-3 -5 -10 -6 -15 -3 -5 4 -15 3 -21 -2 -7 -4 -17 -8 -23
-9 -5 0 -16 -2 -23 -2 -7 -1 -10 -6 -7 -12 3 -6 -1 -7 -9 -4 -9 3 -13 11 -9
18 4 7 1 6 -9 -1 -8 -7 -28 -14 -44 -15 -16 -1 -34 -6 -41 -10 -6 -5 -14 -5
-18 2 -4 7 -12 7 -26 0 -11 -6 -17 -15 -14 -21 4 -5 2 -9 -2 -9 -5 0 -9 -14
-10 -32 -1 -32 -1 -32 12 -8 7 13 11 32 10 42 -2 10 0 18 6 18 5 0 7 -11 5
-24 -3 -18 -1 -23 9 -20 7 3 12 13 10 23 -2 10 3 18 10 18 8 0 11 -5 8 -10 -3
-6 -1 -7 6 -3 6 4 8 12 5 18 -4 7 -2 8 5 4 6 -4 8 -12 5 -18 -4 -6 -1 -8 7 -6
8 3 13 10 12 16 -2 6 8 9 23 6 18 -3 23 -1 18 7 -4 8 -3 9 4 5 6 -4 8 -14 5
-24 -6 -15 -5 -16 13 -2 10 8 23 21 27 28 5 7 12 10 17 7 5 -3 11 -1 15 5 3 5
12 10 18 10 7 0 4 -7 -6 -14 -12 -9 -14 -16 -8 -21 6 -3 11 0 11 7 0 10 2 10
9 -1 5 -8 11 -9 15 -3 3 6 1 12 -6 14 -9 3 -9 6 0 12 7 4 12 2 12 -3 0 -7 7
-7 20 1 11 7 20 15 20 18 0 9 -41 7 -46 -2z"/>
<path d="M2346 1564 c-5 -13 -9 -14 -22 -3 -8 7 -14 8 -12 3 1 -5 -3 -18 -9
-30 -10 -16 -9 -21 2 -21 7 0 11 7 8 16 -3 11 0 10 7 -3 10 -14 10 -20 0 -26
-9 -5 -9 -9 -1 -14 10 -7 13 -2 15 33 1 15 36 25 36 10 0 -5 -4 -9 -10 -9 -19
0 -10 -16 10 -17 11 -1 18 2 15 7 -3 5 0 12 6 16 8 4 9 3 5 -4 -4 -8 -2 -10 7
-6 8 3 18 0 22 -6 4 -7 1 -10 -6 -9 -8 1 -22 -1 -32 -6 -17 -7 -17 -8 0 -22
10 -8 12 -11 5 -8 -11 6 -12 3 -3 -14 14 -25 23 -28 14 -3 -3 9 -3 14 1 10 7
-5 13 -27 15 -51 1 -5 5 -5 11 -2 6 4 5 16 -4 33 -12 23 -12 30 0 46 7 10 11
23 8 27 -3 5 0 9 7 9 9 0 9 3 0 14 -12 15 -28 16 -48 3 -13 -8 -37 26 -26 37
3 3 2 6 -4 6 -6 0 -14 -7 -17 -16z m68 -85 c-3 -5 -10 -7 -15 -3 -5 3 -7 10
-3 15 3 5 10 7 15 3 5 -3 7 -10 3 -15z"/>
<path d="M2574 1558 c-3 -4 -9 -6 -14 -3 -5 3 -11 1 -15 -5 -4 -6 -11 -7 -17
-4 -7 4 -7 0 0 -13 8 -14 6 -25 -8 -43 l-19 -25 -10 28 c-6 15 -12 27 -15 27
-4 0 -1 -28 5 -40 1 -3 3 -11 3 -19 1 -8 7 -16 15 -19 8 -3 11 0 8 6 -4 5 0
15 8 22 9 8 15 8 15 2 0 -6 -5 -12 -12 -14 -9 -3 -9 -6 0 -12 7 -4 12 -2 12 4
0 6 4 8 10 5 5 -3 8 0 7 7 -2 7 -2 10 0 6 3 -5 9 -8 15 -8 7 0 7 5 -1 13 -6 8
-7 18 -3 23 4 4 -1 2 -10 -5 -12 -9 -18 -10 -18 -2 0 10 13 15 33 12 13 -2 8
11 -10 26 -16 13 -15 13 6 2 20 -9 23 -9 19 3 -4 10 2 14 22 14 20 0 26 -4 22
-14 -4 -12 -1 -12 15 -4 25 14 37 4 20 -16 -10 -13 -9 -15 4 -10 10 4 16 1 16
-8 0 -8 -5 -14 -10 -14 -6 0 -7 -3 -4 -6 13 -13 -13 -43 -33 -39 -24 5 -25 -3
-5 -31 8 -12 11 -24 7 -28 -3 -4 0 -12 8 -17 13 -9 13 -10 0 -6 -11 3 -16 -2
-16 -18 0 -16 5 -21 16 -18 13 4 13 3 0 -5 -8 -6 -18 -8 -22 -6 -10 6 -11 -10
-1 -19 3 -4 11 -2 18 3 8 6 12 6 12 -3 0 -6 4 -21 8 -32 5 -14 4 -16 -3 -6 -7
10 -11 10 -17 1 -5 -8 -11 -6 -19 6 -10 14 -16 15 -32 5 -18 -11 -18 -12 2 -6
15 4 24 -1 32 -20 15 -32 28 -32 45 1 12 22 15 24 20 10 4 -10 3 -15 -3 -11
-6 3 -10 1 -10 -4 0 -6 6 -11 13 -11 8 0 7 -4 -3 -11 -12 -8 -11 -10 5 -7 11
2 21 9 21 16 3 23 4 24 19 12 8 -7 15 -9 15 -5 0 5 10 0 22 -11 21 -19 21 -19
15 1 -7 20 -7 20 8 0 14 -17 17 -18 26 -5 9 13 10 12 5 -2 -3 -10 -1 -20 4
-23 9 -5 14 7 12 27 -2 14 29 17 34 3 4 -8 10 -15 16 -15 5 0 7 4 3 9 -3 6 3
10 12 10 38 1 53 5 53 12 0 13 -18 20 -24 10 -5 -7 -41 -8 -41 -1 0 9 -48 4
-51 -5 -4 -10 -49 -14 -49 -5 0 3 -45 11 -70 12 -21 0 -55 38 -59 64 -1 9 -8
19 -15 23 -10 6 -9 10 3 14 10 4 13 15 10 32 -3 18 -1 24 7 20 8 -6 8 -2 0 13
-8 15 -6 23 9 37 11 10 17 21 15 26 -3 4 -1 10 3 13 17 10 5 49 -16 57 -12 5
-22 6 -22 2 0 -3 -7 0 -16 8 -18 15 -53 19 -60 7z m76 -148 c0 -5 -2 -10 -4
-10 -3 0 -8 5 -11 10 -3 6 -1 10 4 10 6 0 11 -4 11 -10z m0 -180 c0 -5 -4 -10
-10 -10 -5 0 -10 5 -10 10 0 6 5 10 10 10 6 0 10 -4 10 -10z"/>
<path d="M870 1548 c0 -5 -4 -7 -8 -4 -12 7 -38 -12 -28 -21 5 -4 11 -2 13 5
4 10 9 8 19 -5 13 -17 14 -17 7 1 -4 13 -2 17 8 14 8 -3 12 -14 11 -24 -3 -15
-1 -17 9 -6 20 19 31 14 24 -10 -3 -13 -3 -18 2 -13 12 15 36 18 27 3 -6 -10
-4 -10 8 0 11 9 18 10 23 2 3 -5 11 -10 16 -10 6 0 8 4 4 9 -3 5 0 13 7 17 7
4 10 4 6 -1 -9 -10 10 -35 26 -35 6 0 4 4 -4 10 -8 5 -11 12 -7 17 9 9 28 -17
21 -29 -3 -4 -1 -8 5 -8 15 0 23 18 11 25 -5 3 -15 15 -21 26 -10 20 -9 20 20
5 19 -10 32 -12 36 -6 6 9 -8 14 -27 11 -5 0 -8 3 -8 8 0 15 39 8 45 -7 4 -10
9 -11 18 -4 8 7 18 7 27 2 11 -7 11 -10 2 -10 -10 0 -10 -5 -1 -21 8 -16 8
-23 -1 -29 -8 -5 -8 -10 -2 -14 13 -8 22 17 15 42 -2 11 0 23 6 26 6 4 11 2
11 -4 0 -6 5 -8 11 -4 8 5 8 9 -1 14 -8 5 -8 9 3 13 11 4 15 0 12 -13 -3 -13
2 -18 15 -17 11 1 22 7 24 14 3 7 -1 10 -10 6 -7 -3 -14 -1 -14 5 0 12 18 10
45 -6 11 -6 14 -12 8 -12 -7 0 -13 -10 -13 -22 0 -18 15 -18 15 0 0 4 4 12 8
19 4 7 -2 20 -15 32 -16 16 -24 18 -30 9 -6 -10 -8 -9 -8 2 0 13 -1 13 -10 0
-5 -8 -10 -11 -10 -6 0 4 -11 1 -25 -8 -15 -10 -25 -12 -25 -6 0 6 -4 9 -9 6
-5 -3 -12 1 -15 10 -5 13 -9 14 -20 5 -10 -8 -16 -9 -21 -1 -4 7 -13 6 -28 -2
-12 -7 -24 -13 -27 -13 -3 0 -15 -6 -26 -13 -12 -6 -25 -8 -29 -4 -5 4 -5 1
-1 -5 10 -17 -4 -16 -28 2 -10 8 -23 12 -27 9 -8 -5 -13 10 -10 29 1 5 -3 6
-9 2 -6 -3 -8 -11 -5 -16 3 -5 -1 -6 -9 -3 -9 3 -14 9 -11 13 2 4 -2 8 -10 8
-8 0 -15 -4 -15 -9z"/>
<path d="M2230 1549 c0 -5 -4 -8 -8 -5 -12 7 -38 -12 -29 -21 5 -4 13 -1 18 7
9 12 10 12 5 -3 -4 -12 -2 -16 7 -11 9 5 9 4 0 -7 -19 -20 -16 -25 17 -25 33
0 36 5 18 25 -10 11 -10 12 -1 7 9 -5 11 -1 7 11 -5 15 -4 15 5 3 5 -8 13 -11
18 -7 9 9 -17 28 -29 21 -4 -3 -8 0 -8 5 0 6 -4 11 -10 11 -5 0 -10 -5 -10
-11z m20 -19 c0 -5 -4 -10 -10 -10 -5 0 -10 5 -10 10 0 6 5 10 10 10 6 0 10
-4 10 -10z m0 -30 c0 -5 -4 -10 -10 -10 -5 0 -10 5 -10 10 0 6 5 10 10 10 6 0
10 -4 10 -10z"/>
<path d="M776 1531 c-18 -20 -39 -22 -57 -4 -7 7 -18 4 -36 -13 -24 -22 -28
-23 -43 -9 -16 15 -19 14 -39 -12 -12 -15 -20 -22 -19 -14 2 7 -5 15 -14 16
-10 2 -17 0 -17 -3 3 -17 -2 -32 -8 -31 -20 3 -34 -2 -29 -10 3 -5 -1 -11 -9
-15 -19 -7 -24 3 -20 45 3 26 0 36 -11 36 -8 0 -14 -4 -14 -8 0 -4 -8 -6 -17
-5 -28 5 -56 -9 -59 -28 -1 -10 3 -15 9 -13 7 3 11 10 9 17 -3 11 0 11 12 0
12 -9 16 -9 16 -1 0 7 4 10 9 6 5 -3 12 -1 16 5 11 17 24 1 18 -23 -2 -12 -5
-30 -5 -39 1 -10 -3 -20 -9 -23 -5 -4 -9 -10 -9 -16 0 -5 9 -4 20 3 11 7 18
18 16 24 -3 7 3 11 12 9 10 -1 16 -10 15 -23 -2 -14 3 -19 15 -17 9 2 19 4 22
4 3 1 -2 6 -10 11 -10 6 -11 10 -2 10 6 0 12 5 12 10 0 5 -3 9 -7 7 -8 -2 -13
6 -13 23 0 6 8 2 18 -7 20 -19 21 -30 9 -50 -5 -8 -4 -13 2 -13 10 0 13 7 10
26 0 4 5 10 11 14 9 5 6 10 -9 15 -11 3 -21 11 -21 16 0 6 4 7 10 4 5 -3 7 0
4 8 -3 8 -1 18 4 21 5 3 8 -6 6 -19 -1 -14 2 -25 7 -25 5 0 9 4 9 8 0 5 14 9
30 9 22 0 29 -4 26 -14 -3 -8 -1 -11 4 -8 6 3 10 10 10 15 0 14 -31 41 -41 35
-5 -4 -9 -1 -9 4 0 14 6 14 40 -4 26 -14 29 -14 24 0 -4 8 -1 15 5 15 6 0 10
-3 10 -7 -3 -20 2 -34 11 -28 7 4 6 13 -1 27 -9 16 -8 19 2 13 8 -6 10 -4 4 4
-6 10 -3 11 12 2 11 -6 23 -7 27 -3 4 3 4 -2 0 -12 -6 -15 -4 -17 7 -10 20 12
39 14 39 3 0 -6 5 -7 11 -3 8 4 7 9 -2 15 -10 6 -7 8 8 6 16 -1 19 -5 12 -13
-6 -8 -5 -14 6 -18 9 -3 14 -2 11 3 -3 5 1 14 9 21 12 10 13 7 9 -16 l-5 -28
22 19 c12 11 19 14 15 8 -5 -9 -2 -11 8 -7 19 7 20 0 6 -26 -7 -13 -7 -21 0
-25 9 -5 14 7 12 27 -2 14 29 17 34 3 9 -21 25 -19 17 3 -5 14 -3 13 10 -3 11
-13 16 -15 17 -6 0 11 3 11 15 1 8 -7 15 -9 15 -4 0 5 9 -2 20 -16 12 -15 18
-18 14 -7 -6 17 6 23 20 10 3 -4 13 -8 22 -9 16 -3 16 26 -1 38 -6 5 -6 8 2 8
6 0 20 8 29 18 17 16 18 16 10 -3 -16 -40 -15 -54 1 -48 12 5 14 1 8 -15 -4
-14 -2 -22 5 -22 6 0 9 4 6 9 -8 13 20 21 32 9 6 -6 12 -6 16 1 4 6 1 11 -6
11 -9 0 -9 3 2 10 12 8 12 10 1 10 -8 0 -11 3 -8 7 4 3 17 -2 28 -13 22 -19
22 -19 10 3 -8 16 -8 24 1 29 7 4 8 3 4 -4 -4 -7 -3 -12 2 -12 9 0 12 -14 12
-50 0 -36 -3 -50 -12 -50 -5 0 -6 -5 -2 -11 4 -8 11 -3 20 12 7 13 10 27 8 31
-3 4 2 5 10 2 9 -3 18 0 21 8 3 8 12 15 20 15 8 0 12 -5 8 -10 -3 -5 4 -4 16
3 12 6 18 16 15 22 -5 7 -2 8 7 2 14 -9 34 -14 57 -16 6 -1 12 -5 12 -10 0 -5
5 -6 11 -3 6 5 4 11 -7 19 -15 11 -15 13 0 13 9 0 16 -4 16 -9 0 -5 6 -6 13
-2 10 6 10 4 0 -7 -15 -15 -17 -33 -4 -24 5 3 12 1 16 -5 3 -5 11 -10 16 -10
6 0 7 6 3 13 -5 7 0 6 11 -3 15 -12 17 -12 10 -1 -6 10 -4 12 5 6 9 -6 11 -4
5 5 -5 9 -4 11 4 6 6 -4 9 -11 7 -14 -2 -4 1 -18 8 -31 9 -15 16 -20 20 -12 4
6 2 11 -5 11 -7 0 -9 3 -6 7 4 3 0 17 -9 31 -9 13 -11 22 -6 18 6 -3 13 -2 17
3 3 5 14 8 25 6 11 -2 22 0 25 6 6 9 -19 14 -40 9 -5 -1 -15 -3 -22 -3 -7 0
-15 -7 -17 -14 -3 -8 -10 -12 -15 -8 -5 3 -12 1 -16 -5 -4 -6 -11 -8 -16 -4
-5 3 -7 9 -4 14 3 5 1 11 -5 15 -6 4 -8 11 -5 16 10 14 -39 6 -51 -10 -9 -11
-15 -11 -42 3 -30 15 -31 15 -27 -4 3 -15 -1 -20 -13 -18 -24 4 -31 17 -27 50
2 15 0 28 -5 28 -6 0 -9 -3 -9 -7 4 -22 -3 -32 -21 -30 -15 1 -19 6 -14 22 4
16 3 17 -5 5 -10 -13 -11 -13 -11 0 0 13 -1 13 -10 0 -9 -13 -11 -13 -21 0 -9
12 -10 11 -5 -5 6 -19 6 -20 -9 -1 -13 18 -14 17 -11 -12 3 -19 -1 -32 -9 -36
-17 -6 -40 19 -25 29 7 4 7 12 0 24 -5 10 -6 22 -2 26 4 5 0 4 -8 -1 -8 -5
-19 -9 -25 -9 -5 -1 -9 -6 -8 -13 2 -7 -2 -12 -7 -12 -5 0 -10 4 -10 9 0 5 -8
12 -17 15 -16 6 -16 6 0 -12 14 -15 15 -21 5 -29 -18 -15 -46 -12 -52 4 -3 8
-11 11 -16 8 -6 -4 -17 -2 -25 5 -7 6 -16 7 -19 2 -9 -16 -51 -6 -50 11 1 10
-3 14 -10 10 -19 -13 -34 -11 -40 3 -3 7 -12 11 -20 8 -8 -3 -19 3 -26 15 -13
26 -22 26 -44 2z m38 -7 c3 -9 2 -12 -5 -9 -5 4 -16 1 -24 -5 -18 -15 -20 -4
-2 15 16 19 24 18 31 -1z m-184 -56 c0 -4 -4 -8 -9 -8 -6 0 -12 4 -15 8 -3 5
1 9 9 9 8 0 15 -4 15 -9z m460 -18 c0 -5 -5 -10 -11 -10 -5 0 -7 5 -4 10 3 6
8 10 11 10 2 0 4 -4 4 -10z m198 2 c11 8 10 4 -3 -11 -17 -21 -17 -23 -3 -18
12 4 15 2 11 -9 -5 -15 -22 -20 -24 -6 0 4 -2 18 -4 32 -2 14 -1 19 2 12 4
-10 8 -10 21 0z"/>
<path d="M1914 1533 c-7 -8 -16 -14 -19 -13 -23 1 -27 -2 -12 -11 13 -7 15
-15 8 -28 -6 -10 -6 -23 -1 -31 5 -8 6 -18 4 -22 -3 -4 -1 -8 5 -8 13 0 22 15
14 24 -13 13 -11 37 3 43 8 3 11 9 8 14 -3 5 -11 6 -17 2 -7 -3 -3 3 7 15 21
24 36 31 16 7 -10 -12 -9 -16 4 -21 9 -3 16 -10 16 -16 0 -5 -5 -6 -10 -3 -6
4 -5 -4 1 -19 7 -14 17 -22 22 -19 8 5 7 8 -1 11 -17 5 -15 19 2 19 8 0 13 -8
11 -19 -2 -10 0 -18 5 -18 17 0 18 15 4 40 -7 14 -13 19 -14 11 0 -11 -4 -9
-14 4 -9 13 -11 26 -6 36 11 20 -16 22 -36 2z"/>
<path d="M2039 1533 c-9 -9 -8 -13 0 -13 7 0 10 -4 7 -9 -3 -4 1 -17 8 -27 10
-13 11 -24 4 -37 -7 -13 -7 -22 0 -29 6 -6 8 -18 5 -27 -3 -12 -1 -11 7 2 8
13 9 22 2 29 -6 6 -8 17 -5 25 4 11 8 11 13 3 5 -8 9 -7 13 5 5 11 3 14 -6 9
-9 -5 -9 -4 0 6 18 19 27 6 14 -19 -7 -13 -8 -22 -1 -26 9 -6 14 8 11 28 0 4
4 7 10 7 5 0 8 4 5 9 -3 5 1 14 9 21 12 10 15 10 15 0 0 -9 6 -7 20 5 19 17
19 17 15 -4 -6 -31 2 -47 25 -48 11 -1 18 1 16 5 -3 4 4 8 14 8 10 0 17 -4 14
-8 -2 -4 5 -6 16 -5 11 1 20 7 20 14 0 6 5 15 12 19 8 5 9 2 5 -10 -5 -11 -3
-15 5 -10 7 4 8 3 4 -4 -4 -7 -3 -12 2 -12 6 0 12 7 16 15 3 8 12 12 21 9 8
-3 12 -11 9 -16 -4 -6 -10 -5 -16 3 -8 11 -9 11 -5 -1 2 -8 12 -14 21 -14 10
1 15 0 12 -3 -9 -9 14 -44 25 -38 5 4 9 1 9 -6 0 -7 3 -10 6 -6 4 3 -7 27 -25
53 -17 26 -29 50 -26 54 2 4 -2 7 -10 7 -10 0 -12 -4 -5 -12 7 -8 4 -11 -8
-10 -23 1 -44 14 -38 24 3 4 -3 7 -13 8 -14 1 -17 -5 -15 -23 2 -20 0 -23 -11
-14 -10 8 -14 7 -18 -2 -4 -11 -7 -10 -15 0 -5 8 -13 14 -18 15 -5 1 -9 7 -8
12 0 6 -8 18 -18 28 -10 9 -18 13 -18 8 0 -6 -8 -8 -19 -6 -12 2 -18 -2 -17
-13 1 -11 -7 -16 -24 -17 -15 0 -24 5 -22 13 1 6 -3 12 -9 12 -6 0 -9 6 -6 13
3 8 -1 14 -9 14 -8 0 -19 -6 -25 -14z m40 -45 c1 -5 -2 -8 -6 -7 -5 1 -7 5 -5
10 1 5 -2 9 -6 9 -4 0 -8 10 -9 23 -2 21 -1 21 12 -3 7 -14 13 -28 14 -32z
m95 20 c-3 -4 -9 -8 -15 -8 -5 0 -9 4 -9 8 0 5 7 9 15 9 8 0 12 -4 9 -9z m31
-38 c3 -5 1 -10 -4 -10 -6 0 -11 5 -11 10 0 6 2 10 4 10 3 0 8 -4 11 -10z
m193 -65 c-3 -3 -9 2 -12 12 -6 14 -5 15 5 6 7 -7 10 -15 7 -18z"/>
<path d="M2590 1530 c0 -21 -2 -25 -16 -33 -14 -8 -13 -12 3 -30 10 -12 14
-19 9 -15 -5 4 -21 1 -36 -7 -15 -8 -30 -11 -34 -8 -3 4 -6 0 -6 -7 0 -9 -6
-8 -20 5 -11 10 -17 21 -15 25 8 12 -24 5 -37 -8 -8 -8 -9 -12 -1 -12 15 0 11
-21 -8 -50 l-15 -23 -37 33 c-25 24 -47 34 -71 35 -19 1 -33 -2 -30 -7 8 -12
-10 -10 -24 4 -9 9 -15 9 -24 0 -14 -14 -32 -16 -24 -3 8 13 -43 6 -56 -7 -6
-6 -17 -8 -24 -5 -8 3 -14 0 -14 -7 0 -6 5 -8 10 -5 6 3 10 1 10 -6 0 -8 6 -6
18 4 15 13 21 14 32 4 10 -10 12 -8 6 7 -6 16 -4 17 9 6 11 -10 13 -15 4 -20
-7 -5 -7 -10 -2 -13 6 -4 15 5 21 18 7 14 16 25 22 25 6 0 15 -11 22 -25 6
-13 15 -22 21 -18 5 3 5 8 -2 13 -9 5 -7 10 4 20 13 11 14 10 8 -6 -6 -16 -5
-17 9 -6 12 9 18 10 23 2 4 -6 14 -9 22 -5 14 5 14 3 0 -17 -8 -13 -22 -22
-30 -22 -9 1 -13 -4 -11 -10 3 -7 14 -12 24 -13 11 -1 18 1 16 5 -2 4 2 18 10
32 7 14 13 20 14 13 0 -6 14 -22 32 -34 26 -19 31 -20 25 -5 -5 11 -3 15 5 10
7 -4 8 -3 4 4 -4 7 -2 12 4 12 7 0 9 -9 5 -22 -6 -22 -5 -22 7 -3 18 29 19 48
2 41 -8 -3 -12 -2 -9 4 3 5 25 7 48 5 25 -3 37 -1 29 4 -11 7 -10 9 3 14 9 4
14 3 11 -2 -3 -5 1 -14 9 -21 13 -11 14 -10 9 5 -5 13 -3 16 7 13 8 -3 12 -13
11 -23 -3 -16 -2 -17 12 -6 9 8 19 11 23 7 3 -3 0 -6 -8 -6 -12 0 -12 -2 0 -9
9 -6 10 -11 2 -15 -6 -4 -11 -3 -11 2 0 5 -7 9 -15 9 -21 0 -19 -4 13 -22 15
-9 19 -14 9 -11 -12 4 -16 2 -12 -7 4 -6 -1 -3 -9 7 -9 11 -16 15 -16 10 0
-17 22 -33 39 -27 13 4 14 3 1 -5 -8 -6 -17 -9 -21 -6 -4 2 -10 0 -14 -6 -4
-6 -12 -7 -18 -4 -9 5 -9 4 -1 -5 17 -19 74 12 69 37 -2 10 0 25 5 32 10 15
-17 63 -31 54 -5 -3 -16 -1 -25 4 -14 8 -12 10 9 11 15 1 38 2 52 3 14 1 25 4
26 8 0 3 2 13 4 22 2 10 -1 21 -6 24 -6 3 -5 11 2 20 10 12 9 13 -5 8 -10 -4
-15 -13 -12 -20 3 -8 0 -11 -9 -8 -8 3 -14 9 -13 12 0 4 0 13 -1 20 -1 14 -21
17 -21 2z m20 -39 c0 -6 8 -8 18 -6 11 2 19 -3 19 -10 0 -8 -4 -12 -9 -9 -4 3
-8 1 -8 -4 0 -5 -6 -9 -14 -9 -8 0 -12 6 -9 14 3 8 2 13 -3 12 -5 -1 -16 -1
-24 0 -13 1 -13 2 0 11 19 12 30 13 30 1z m-110 -77 c0 -1 -8 -1 -17 1 -10 2
-20 4 -23 4 -3 1 -6 10 -7 20 -2 19 -1 19 23 -1 13 -12 24 -23 24 -24z"/>
<path d="M1750 1502 c-19 -26 -28 -30 -61 -27 -37 3 -39 2 -35 -22 6 -28 -2
-53 -16 -53 -5 0 -7 3 -4 8 6 11 -71 9 -81 -2 -5 -5 -2 -6 6 -1 9 5 12 3 9 -6
-3 -8 -2 -21 3 -30 10 -21 -11 -41 -30 -30 -7 5 -12 11 -12 15 3 23 0 30 -9
16 -6 -9 -5 -19 2 -28 9 -10 8 -16 -3 -23 -8 -5 -12 -9 -9 -10 3 0 13 -2 23
-4 13 -2 17 1 13 12 -6 13 -4 14 9 3 11 -10 13 -15 4 -20 -8 -6 -8 -9 0 -14 6
-4 11 -2 11 4 0 7 6 10 13 7 8 -3 14 1 14 8 0 7 -7 11 -16 8 -14 -4 -14 -4 -1
6 13 9 13 11 0 11 -12 1 -11 3 3 11 9 5 21 8 26 4 5 -3 12 -1 16 5 3 5 1 11
-4 11 -6 1 -17 2 -23 3 -7 1 -12 8 -10 15 1 7 -2 10 -9 5 -8 -5 -9 -3 -5 5 6
9 13 8 27 -5 18 -16 19 -16 13 -1 -3 10 -1 17 6 17 6 0 8 -5 4 -11 -5 -8 -1
-8 13 0 14 7 23 7 31 -1 9 -9 12 -9 12 0 0 7 -4 12 -10 12 -5 0 -10 5 -10 11
0 8 6 7 17 -2 15 -12 16 -12 8 1 -8 13 -7 13 8 1 11 -9 17 -10 17 -2 0 10 -13
15 -32 12 -5 0 -8 4 -8 10 0 6 7 9 14 6 10 -4 13 -1 9 9 -4 12 -8 12 -22 2
-13 -10 -14 -10 -4 2 14 15 46 23 38 9 -4 -5 -2 -16 3 -25 6 -11 11 -13 16 -5
4 6 2 11 -4 11 -6 0 -8 5 -4 11 4 8 9 7 16 -2 7 -11 8 -10 4 4 -4 12 -2 16 6
11 6 -4 9 -3 6 2 -4 5 5 10 18 10 24 2 31 -6 17 -20 -4 -3 -8 -13 -9 -21 -3
-17 34 -16 40 2 3 8 -1 10 -11 6 -13 -5 -15 -2 -10 11 4 10 7 20 7 23 0 3 8
-5 19 -18 16 -20 21 -21 34 -10 14 11 15 8 12 -18 -3 -21 1 -34 13 -40 11 -7
12 -11 4 -11 -7 0 -10 -5 -6 -11 5 -8 9 -8 14 1 5 9 9 9 14 1 4 -6 2 -11 -5
-11 -8 0 -8 -4 1 -15 7 -8 17 -15 22 -15 6 0 6 6 -1 14 -9 11 -9 15 1 19 11 4
10 6 0 6 -7 1 -10 6 -7 12 5 6 12 4 21 -8 8 -11 13 -13 14 -6 0 7 -9 18 -19
25 -18 11 -18 13 -3 24 9 6 22 9 30 6 10 -4 11 -7 1 -12 -6 -5 11 -7 39 -5 29
1 49 -1 47 -6 -3 -4 -12 -6 -20 -3 -16 7 -15 -12 3 -41 12 -19 13 -19 7 3 -4
13 -2 22 5 22 6 0 8 -5 4 -12 -4 -7 -3 -8 4 -4 8 5 10 1 5 -10 -5 -15 -3 -15
22 2 44 29 61 26 56 -8 0 -4 8 -6 19 -5 11 1 20 5 20 10 0 4 5 5 10 2 6 -3 10
-11 10 -16 0 -6 -4 -7 -10 -4 -5 3 -10 0 -10 -7 0 -11 -2 -10 -9 0 -7 11 -9
10 -15 -3 -3 -9 -9 -14 -14 -12 -4 3 -16 -2 -27 -10 -19 -15 -19 -15 4 -8 19
6 23 4 18 -8 -4 -11 -2 -14 8 -11 8 3 14 9 13 12 -2 20 4 28 22 29 11 1 18 -2
15 -8 -4 -5 -14 -9 -23 -9 -14 0 -15 -2 -2 -10 9 -6 17 -5 22 3 6 9 8 9 8 -1
0 -7 5 -10 11 -6 6 3 7 9 3 13 -12 8 -17 34 -6 27 5 -3 9 1 9 9 0 8 -5 15 -11
15 -6 0 -4 4 4 10 9 5 19 5 27 -2 9 -7 17 -7 26 0 8 7 18 7 27 2 8 -6 10 -10
4 -10 -6 0 -11 -7 -11 -15 0 -8 4 -12 9 -9 11 7 6 -19 -6 -27 -4 -4 -3 -10 3
-13 6 -4 11 -1 11 6 0 10 2 10 8 1 5 -8 13 -9 22 -3 13 8 12 10 -2 10 -9 0
-19 4 -23 9 -3 6 4 9 15 8 18 -1 24 -9 22 -29 -1 -3 5 -9 13 -12 10 -3 12 0 8
11 -5 12 -1 14 18 8 23 -7 23 -7 4 8 -11 8 -23 13 -27 10 -5 -2 -11 3 -14 12
-6 13 -8 14 -15 3 -7 -10 -9 -11 -9 0 0 7 -4 11 -9 8 -5 -3 -8 6 -8 19 0 20 3
24 17 20 23 -7 34 9 16 24 -10 8 -17 6 -30 -8 -16 -18 -52 -19 -42 -2 3 4 0
13 -5 21 -8 13 -10 13 -18 0 -5 -8 -8 -17 -5 -21 10 -17 -26 -16 -42 2 -14 15
-20 17 -32 7 -22 -19 -41 -18 -47 2 -3 10 -13 24 -23 32 -15 11 -15 11 -6 -2
13 -17 15 -50 2 -50 -4 0 -11 0 -15 0 -5 0 -8 6 -8 14 0 7 -6 21 -14 30 -10
12 -10 16 -1 16 6 0 0 14 -14 31 -14 17 -23 36 -20 41 4 7 2 8 -4 4 -14 -8
-16 -36 -4 -36 15 0 9 -30 -10 -47 -11 -9 -18 -11 -18 -5 0 7 -3 11 -7 11 -17
-3 -33 1 -32 9 3 17 -2 32 -10 32 -10 0 -9 -19 2 -36 4 -7 0 -17 -8 -24 -7 -6
-11 -19 -8 -28 4 -13 3 -14 -6 -6 -7 6 -13 21 -14 33 -1 11 -6 21 -11 21 -5 0
-6 3 -3 6 3 4 2 15 -4 25 -8 15 -14 17 -29 9 -15 -8 -23 -4 -43 21 l-25 32
-22 -31z m20 -12 c0 -5 -2 -10 -4 -10 -3 0 -8 5 -11 10 -3 6 -1 10 4 10 6 0
11 -4 11 -10z m85 -20 c-3 -5 -12 -10 -18 -10 -7 0 -6 4 3 10 19 12 23 12 15
0z m171 -25 c-2 -7 -1 -16 4 -21 5 -5 -4 -9 -22 -9 l-30 -1 22 18 c12 10 18
22 14 29 -5 8 -3 9 5 5 7 -5 10 -14 7 -21z m148 -61 c24 -9 19 -22 -6 -19 -30
3 -30 3 -23 15 7 12 8 12 29 4z"/>
<path d="M1386 1498 c3 -5 10 -6 15 -3 13 9 11 12 -6 12 -8 0 -12 -4 -9 -9z"/>
<path d="M360 1492 c0 -7 -4 -10 -10 -7 -5 3 -10 2 -10 -4 0 -6 -7 -8 -15 -5
-8 4 -15 2 -15 -4 0 -5 -8 -9 -17 -9 -24 1 -105 -38 -97 -46 4 -3 19 0 35 8
18 10 30 11 34 5 4 -6 12 -9 19 -8 6 2 11 0 11 -4 0 -4 10 -15 22 -23 18 -12
27 -14 40 -5 15 9 15 11 2 7 -20 -7 -39 11 -32 29 3 9 -4 12 -26 9 -24 -3 -31
0 -31 13 0 15 2 15 10 2 8 -12 10 -12 10 -1 0 11 3 11 17 0 14 -12 16 -12 8 0
-6 10 -4 12 5 6 8 -5 11 -4 6 3 -4 7 1 9 15 7 27 -5 33 -11 20 -20 -6 -3 -11
-1 -11 5 0 6 -5 8 -11 4 -8 -4 -3 -11 12 -20 16 -8 28 -9 36 -3 7 7 13 6 18
-1 3 -5 11 -10 16 -10 6 0 8 4 5 8 -2 4 -1 14 3 21 6 9 11 10 15 2 4 -6 2 -11
-4 -11 -6 0 -9 -4 -5 -9 3 -6 -3 -14 -12 -20 -13 -8 -14 -10 -4 -11 11 0 9 -4
-5 -15 -16 -13 -16 -14 -1 -9 10 4 17 1 17 -6 0 -6 4 -9 9 -6 5 3 20 -3 33
-14 24 -18 38 -18 38 2 0 5 -4 7 -8 4 -12 -7 -38 12 -29 21 5 4 12 1 17 -7 6
-8 10 -12 10 -7 0 4 14 0 31 -9 17 -8 28 -11 25 -5 -6 10 6 15 27 12 4 0 7 3
7 8 0 5 14 8 32 6 28 -4 29 -3 12 9 -10 8 -23 13 -29 12 -5 -2 -7 -1 -2 1 4 3
4 10 0 16 -4 7 1 6 10 -2 9 -7 17 -10 18 -5 0 5 2 16 4 25 2 10 -4 15 -18 14
-18 -1 -26 -15 -29 -52 -2 -15 -26 -25 -40 -16 -7 3 -8 1 -4 -5 4 -7 2 -12 -3
-12 -6 0 -11 5 -11 10 0 6 -3 9 -7 9 -5 -1 -15 -1 -22 0 -12 1 -12 4 -3 13 24
24 11 27 -14 3 -28 -26 -64 -24 -42 2 6 8 13 22 14 31 1 10 5 28 8 42 4 21 3
23 -7 9 -7 -9 -20 -15 -29 -13 -9 1 -22 -4 -29 -12 -16 -20 -29 -17 -24 4 2
10 -1 25 -6 33 -7 11 -9 11 -9 1z"/>
<path d="M712 1488 c1 -7 -3 -24 -10 -38 -11 -21 -11 -23 1 -8 12 15 14 15 26
-4 7 -11 15 -18 18 -15 3 3 1 12 -3 19 -9 14 -11 19 -13 43 0 8 -6 15 -11 15
-6 0 -10 -6 -8 -12z"/>
<path d="M751 1472 c-7 -13 -7 -22 1 -30 19 -19 -2 -35 -22 -17 -11 10 -20 12
-24 6 -4 -6 -14 -7 -22 -4 -14 5 -15 3 -5 -15 7 -12 14 -22 17 -22 3 0 3 4 -1
9 -3 5 -1 12 4 15 5 4 8 -5 6 -19 -1 -14 2 -28 8 -32 6 -3 7 -2 4 4 -4 6 0 19
8 29 15 18 15 18 8 0 -6 -18 -5 -18 20 -2 17 12 27 14 32 6 7 -11 25 -4 25 10
0 4 -11 7 -25 6 -27 -3 -25 3 9 44 12 14 17 22 12 18 -5 -4 -17 -3 -27 2 -14
8 -20 6 -28 -8z m23 -17 c-4 -8 -11 -12 -17 -8 -8 5 -7 8 1 11 7 2 9 9 6 14
-4 7 -2 8 4 4 6 -4 9 -13 6 -21z m-49 -34 c3 -5 2 -12 -3 -15 -5 -3 -9 1 -9 9
0 17 3 19 12 6z"/>
<path d="M2165 1480 c-3 -5 -13 -6 -23 -3 -9 3 -14 3 -10 -2 4 -4 3 -15 -2
-25 -5 -10 -7 -20 -3 -23 10 -11 47 22 48 43 2 22 -1 25 -10 10z m-24 -43
c-10 -9 -11 -8 -5 6 3 10 9 15 12 12 3 -3 0 -11 -7 -18z"/>
<path d="M665 1460 c3 -6 -4 -24 -16 -42 -13 -17 -18 -28 -11 -24 7 4 12 2 12
-3 0 -6 1 -14 3 -18 1 -5 -11 -9 -28 -11 -51 -4 -54 -5 -59 -19 -4 -10 -11
-11 -25 -4 -14 8 -22 7 -31 -4 -11 -14 -15 -14 -30 0 -9 8 -20 12 -23 8 -4 -3
-7 -1 -7 5 0 7 -3 11 -7 11 -5 -1 -11 0 -15 1 -5 1 -12 3 -18 4 -8 1 -12 9 -9
19 10 32 -2 60 -16 37 -4 -7 -12 -7 -25 0 -13 7 -21 7 -25 0 -3 -5 -3 -11 2
-11 4 -1 13 -2 18 -3 11 -1 15 -9 15 -27 0 -5 -4 -7 -10 -4 -5 3 -10 1 -10 -6
0 -8 -5 -7 -17 3 -10 9 -23 13 -30 11 -8 -3 -11 3 -8 16 2 13 -1 18 -10 15 -7
-3 -16 -1 -20 5 -4 8 -15 7 -33 -3 -15 -7 -33 -11 -39 -9 -7 3 -13 0 -13 -7 0
-6 -5 -8 -11 -5 -6 4 -5 -2 2 -13 9 -14 18 -18 28 -13 9 5 24 7 33 6 18 -3 20
15 3 27 -5 4 0 6 12 5 17 -1 19 -4 11 -14 -12 -15 3 -18 18 -3 6 6 10 3 11
-11 2 -16 -2 -19 -20 -14 -21 6 -21 6 -2 -7 29 -18 48 -19 41 -3 -3 8 0 17 6
21 6 4 8 3 5 -2 -3 -6 -2 -16 4 -24 6 -11 9 -12 9 -2 0 7 5 10 11 7 6 -4 8
-13 6 -19 -3 -7 1 -13 9 -13 7 0 10 5 7 10 -4 6 0 7 8 3 8 -4 6 -1 -4 7 -15
12 -15 15 -3 20 9 4 18 2 22 -4 3 -6 13 -8 21 -5 8 3 11 1 8 -4 -3 -6 -1 -10
4 -10 6 0 11 -7 11 -15 0 -8 4 -15 10 -15 5 0 7 8 4 18 -5 14 -4 15 5 2 9 -13
11 -13 11 0 0 12 2 12 9 2 4 -7 14 -14 22 -15 8 -2 20 -6 28 -11 10 -7 12 -3
7 15 -6 21 -5 22 4 6 9 -14 15 -16 26 -6 8 6 14 10 15 8 0 -2 2 -11 4 -21 6
-30 22 -51 29 -39 4 6 2 11 -5 11 -7 0 -9 3 -6 7 4 3 0 17 -9 31 -9 13 -11 22
-6 18 6 -3 13 -2 17 4 4 6 11 7 17 4 7 -5 8 -2 3 6 -6 9 -4 11 4 5 9 -5 10
-10 2 -18 -18 -18 -12 -28 8 -15 11 7 18 15 15 19 -2 5 4 13 15 18 14 8 22 7
30 -3 6 -7 9 -15 6 -18 -9 -9 24 -30 35 -23 6 4 8 16 4 27 -5 17 -3 19 14 14
14 -5 24 -1 31 11 6 10 11 13 11 8 0 -6 9 -11 21 -12 18 -2 19 0 7 14 -11 14
-11 15 1 8 10 -5 12 -4 7 3 -5 8 -2 10 8 6 9 -3 16 -1 16 6 0 6 -5 8 -12 4 -9
-6 -9 -3 0 9 8 9 11 21 7 26 -3 6 0 8 8 5 7 -2 14 -11 14 -19 0 -8 -5 -11 -11
-8 -6 4 -5 -1 2 -10 8 -9 11 -22 7 -29 -4 -7 3 -2 14 12 18 21 20 21 15 5 -4
-11 -4 -17 1 -13 4 4 17 2 29 -4 l21 -11 -20 24 c-11 13 -16 21 -11 17 5 -4
15 0 23 10 9 12 12 13 8 2 -4 -11 2 -15 20 -16 14 -1 23 2 20 6 -9 15 18 23
29 9 18 -22 39 -23 25 -1 -12 20 -69 26 -69 8 -1 -6 -10 0 -20 13 -18 20 -22
19 -19 -5 2 -14 -26 -22 -38 -12 -9 7 -10 16 -3 28 7 14 6 18 -5 16 -8 -1 -17
-5 -21 -9 -4 -3 -14 -2 -24 3 -19 10 -64 -15 -54 -31 3 -5 9 -7 14 -4 15 9 22
-15 10 -31 -9 -10 -16 -11 -25 -4 -7 6 -18 5 -32 -5 -11 -8 -24 -11 -28 -7 -5
4 -5 2 -1 -5 8 -14 -6 -25 -19 -15 -6 4 -18 22 -28 40 -16 29 -17 33 -3 38 20
8 20 20 0 28 -8 3 -12 2 -9 -4z m168 -33 c-2 -4 -10 -3 -17 2 -7 6 -17 7 -21
3 -5 -4 -5 -1 -1 6 4 7 12 10 17 7 5 -4 9 0 9 7 0 10 3 9 9 -2 6 -8 7 -18 4
-23z m52 -6 c3 -5 2 -12 -3 -15 -5 -3 -9 1 -9 9 0 17 3 19 12 6z m-489 -16
c-1 -8 -5 -17 -8 -21 -5 -4 -4 16 1 34 3 9 9 -1 7 -13z m275 -12 c13 -16 12
-17 -3 -4 -17 13 -22 21 -14 21 2 0 10 -8 17 -17z m-441 -1 c0 -4 -9 -8 -20
-9 -11 -1 -20 2 -20 5 0 4 9 8 20 9 11 1 20 -2 20 -5z m540 -17 c-7 -9 -15
-13 -19 -10 -3 3 1 10 9 15 21 14 24 12 10 -5z m-40 -45 c0 -5 -4 -10 -10 -10
-5 0 -10 5 -10 10 0 6 5 10 10 10 6 0 10 -4 10 -10z"/>
<path d="M1765 1462 c-24 -16 -54 -65 -48 -76 4 -6 0 -6 -9 2 -13 10 -17 10
-22 -4 -5 -12 -10 -13 -19 -6 -14 12 -46 -2 -34 -15 5 -4 12 -2 16 6 7 10 10
9 14 -3 4 -9 11 -16 17 -16 6 0 9 4 5 9 -3 5 0 13 6 17 7 4 9 3 5 -4 -4 -7 1
-10 14 -9 11 1 20 7 20 14 0 6 5 15 11 18 6 4 9 0 7 -10 -2 -10 4 -20 12 -22
13 -4 13 -3 0 7 -13 10 -13 11 1 7 20 -6 19 31 -2 44 -12 7 -12 9 0 9 8 0 11
3 8 7 -4 3 -2 12 4 20 13 14 10 17 -6 5z m-5 -53 c13 -9 13 -10 -1 -6 -9 3
-22 0 -28 -6 -9 -9 -11 -8 -6 6 8 20 14 21 35 6z"/>
<path d="M1212 1435 c13 -14 -13 -37 -27 -25 -9 8 -15 6 -20 -7 -12 -26 -12
-37 -2 -44 15 -11 -2 -28 -23 -24 -12 2 -18 0 -15 -6 4 -5 11 -7 16 -3 6 3 10
0 8 -7 -3 -27 1 -40 12 -33 8 4 7 9 -2 15 -12 7 -12 9 0 9 8 0 11 3 8 7 -4 3
-2 12 4 19 7 9 7 19 -1 35 -8 14 -8 19 -1 15 6 -4 19 -2 30 4 14 7 22 7 27 -2
4 -7 3 -8 -4 -4 -7 4 -10 2 -9 -6 2 -7 2 -10 0 -5 -8 14 -19 7 -20 -13 -1 -11
1 -19 5 -19 18 3 35 -2 29 -8 -8 -7 11 -33 25 -33 5 0 0 13 -11 28 -11 16 -16
33 -12 41 10 16 2 59 -13 68 -6 3 -8 3 -4 -2z"/>
<path d="M1828 1420 c3 -8 13 -21 21 -28 14 -11 14 -12 0 -7 -9 3 -22 -2 -30
-11 -12 -16 -12 -17 4 -11 20 7 47 -1 47 -15 0 -5 -4 -7 -8 -4 -4 2 -14 0 -22
-6 -12 -8 -12 -9 3 -4 12 4 16 2 11 -6 -5 -7 -3 -8 6 -3 8 5 11 4 7 -2 -4 -6
4 -9 18 -7 14 1 23 -1 21 -5 -3 -4 4 -7 14 -7 10 0 16 4 14 8 -5 7 10 12 29 9
4 0 7 4 7 9 0 5 -6 10 -12 10 -9 0 -8 3 2 10 12 7 10 9 -8 7 -13 -1 -21 -6
-18 -14 3 -7 0 -15 -5 -19 -11 -6 -73 46 -64 54 3 3 0 11 -6 18 -6 8 -9 20 -6
27 3 7 -3 13 -13 13 -12 0 -16 -5 -12 -16z m67 -90 c3 -6 -1 -7 -9 -4 -18 7
-21 14 -7 14 6 0 13 -4 16 -10z"/>
<path d="M1064 1423 c6 -12 -9 -26 -32 -29 -7 -2 -16 4 -19 12 -7 18 -20 18
-20 -1 0 -8 4 -12 9 -9 4 3 8 0 8 -5 0 -13 -27 -14 -35 -2 -4 8 -45 12 -45 4
0 -1 10 -7 21 -14 17 -9 20 -8 14 2 -5 7 -4 10 3 5 6 -3 9 -15 7 -26 -3 -13 2
-18 16 -17 20 1 27 17 7 17 -17 0 -3 10 21 15 11 2 26 7 32 11 8 4 8 0 0 -15
-7 -11 -9 -21 -7 -21 3 0 13 14 22 31 12 25 13 34 3 43 -9 8 -10 8 -5 -1z"/>
<path d="M1120 1421 c-8 -6 -18 -7 -22 -5 -7 5 -12 -10 -9 -28 0 -5 -4 -8 -11
-8 -6 0 -8 -3 -5 -7 7 -6 -22 -32 -37 -33 -4 0 -6 6 -3 13 3 8 -1 14 -8 14 -7
0 -12 -7 -11 -16 1 -10 -8 -15 -24 -16 -16 0 -25 6 -25 15 0 10 -9 15 -28 14
-15 -1 -27 2 -27 6 0 11 -20 7 -48 -9 -22 -12 -23 -11 -13 8 9 17 9 20 -3 15
-9 -3 -15 -9 -14 -12 3 -28 -2 -34 -19 -21 -17 14 -20 14 -40 -3 -7 -5 -17 -7
-22 -3 -6 3 -8 0 -5 -8 3 -8 -2 -20 -11 -27 -13 -11 -19 -10 -35 5 -11 10 -17
21 -15 26 3 4 0 11 -6 15 -8 5 -9 3 -4 -6 6 -10 4 -12 -9 -7 -10 4 -15 3 -11
-3 6 -9 -34 -36 -48 -32 -4 1 -4 -6 2 -15 6 -13 5 -24 -5 -38 -8 -10 -14 -13
-14 -7 0 8 -8 5 -21 -7 -18 -16 -25 -18 -40 -8 -11 7 -17 17 -15 24 3 7 -1 10
-7 7 -19 -7 -18 -40 1 -42 9 -1 26 -3 37 -4 11 -2 24 -7 28 -13 5 -6 7 -3 3 7
-3 10 -1 20 5 23 5 4 9 3 8 -2 -4 -22 4 -29 34 -31 17 -1 39 -5 49 -8 9 -2 19
0 23 6 4 6 12 4 22 -6 11 -11 26 -14 45 -10 16 3 27 2 24 -2 -6 -10 85 -9 101
1 6 4 15 2 19 -4 4 -7 3 -9 -4 -5 -6 3 -13 3 -15 -2 -3 -4 16 -8 41 -9 103 -4
173 -10 179 -16 11 -11 21 -8 27 9 4 10 2 13 -6 8 -6 -4 -8 -3 -5 3 3 5 0 10
-8 10 -8 0 -12 -3 -10 -7 2 -4 -2 -7 -10 -7 -8 0 -12 4 -9 9 3 4 0 8 -5 8 -6
0 -11 -6 -11 -12 -1 -7 -6 -4 -13 7 -17 29 -47 32 -42 4 3 -17 2 -19 -10 -9
-8 6 -20 8 -26 4 -8 -5 -9 -3 -4 7 7 11 5 11 -10 -1 -10 -8 -16 -10 -12 -4 4
7 -2 10 -18 9 -14 -2 -26 3 -29 12 -5 11 -10 12 -20 4 -7 -6 -17 -7 -21 -3 -5
4 -5 2 -2 -4 7 -12 -22 -15 -38 -4 -5 4 -29 6 -53 5 -24 -1 -38 1 -32 5 9 5 9
9 1 14 -6 4 -11 2 -11 -4 0 -7 -5 -8 -12 -3 -7 4 -33 9 -58 9 -68 2 -72 3 -64
15 4 6 9 7 13 2 3 -5 14 -1 24 9 10 10 12 18 5 18 -6 0 -8 3 -5 7 4 3 2 12 -4
19 -7 8 -6 14 2 20 8 5 10 3 5 -7 -6 -10 -4 -10 6 1 7 8 22 16 33 18 17 2 17
0 -4 -11 -15 -9 -20 -17 -12 -21 6 -4 11 -2 11 4 0 6 5 8 11 4 8 -4 7 -9 -2
-15 -10 -6 -10 -9 -2 -9 7 0 17 8 22 18 6 10 11 12 11 4 0 -7 4 -11 8 -8 14 8
54 -25 48 -40 -3 -7 0 -11 7 -8 7 2 13 14 14 24 1 11 -1 18 -5 16 -4 -2 -16 1
-27 7 -20 12 -20 12 2 34 13 12 23 18 23 13 0 -6 5 -10 11 -10 5 0 8 4 4 9 -3
5 0 13 6 17 8 5 9 3 4 -6 -6 -9 -4 -11 6 -5 11 7 12 6 2 -7 -13 -15 -8 -28 9
-28 5 0 7 4 3 9 -3 5 2 17 12 26 16 16 17 16 29 0 7 -9 18 -14 24 -10 8 5 6
11 -6 19 -14 11 -12 12 14 12 17 0 29 -3 26 -8 -3 -5 -11 -5 -17 -2 -9 5 -9 3
0 -6 10 -11 15 -11 28 0 14 11 19 7 16 -13 -1 -5 4 -5 10 -1 8 4 9 3 5 -5 -4
-6 -11 -9 -16 -6 -5 3 -11 1 -15 -5 -5 -9 1 -12 21 -9 4 0 11 -5 16 -13 6 -9
7 -6 3 10 -4 13 -2 22 5 22 6 0 9 -4 6 -8 -2 -4 -1 -14 3 -21 6 -9 11 -10 15
-2 4 6 3 11 -2 11 -5 0 -9 7 -9 15 0 21 4 19 22 -12 l15 -28 -6 35 c-5 33 -4
34 10 15 13 -17 15 -18 16 -3 0 9 4 20 10 23 6 4 7 -1 3 -12 -6 -16 -5 -16 10
-4 9 7 15 16 13 20 -3 4 0 13 5 21 7 11 8 8 6 -10 -3 -15 3 -30 12 -38 14 -11
14 -11 -4 -5 -11 3 -17 3 -13 -2 4 -4 2 -17 -4 -29 -11 -21 -11 -21 11 -2 11
11 24 16 28 13 3 -4 0 -7 -8 -7 -11 0 -11 -2 1 -10 11 -7 11 -10 2 -10 -7 0
-10 -5 -6 -11 4 -7 10 -7 16 -1 6 6 17 8 25 5 11 -4 10 -8 -4 -20 -17 -13 -17
-14 2 -5 11 5 28 8 38 7 9 -2 15 0 12 5 -3 4 2 7 10 6 7 0 14 3 14 8 -1 5 4
12 9 15 13 8 -28 56 -48 56 -8 0 -15 -9 -15 -20 0 -29 -13 -45 -31 -38 -8 3
-13 8 -10 11 3 2 0 14 -7 26 -15 27 -19 66 -6 66 5 0 8 -3 8 -7 -3 -20 2 -30
16 -30 10 0 12 4 5 12 -5 7 -7 15 -3 18 3 4 1 7 -4 7 -6 0 -10 11 -8 25 1 14
2 25 1 25 0 0 -8 -4 -16 -9z m6 -23 c4 -7 3 -8 -4 -4 -7 4 -12 2 -12 -4 0 -6
-5 -8 -11 -4 -8 4 -7 9 2 15 18 11 17 11 25 -3z m100 -117 c1 -14 -3 -20 -11
-17 -7 2 -17 0 -23 -6 -6 -6 -12 -6 -17 1 -3 7 4 21 17 32 14 13 17 19 7 16
-9 -3 -16 1 -16 9 0 24 42 -10 43 -35z m-596 -25 c0 -3 -4 -8 -10 -11 -5 -3
-10 -1 -10 4 0 6 5 11 10 11 6 0 10 -2 10 -4z m420 -80 c0 -3 -4 -8 -10 -11
-5 -3 -10 -1 -10 4 0 6 5 11 10 11 6 0 10 -2 10 -4z"/>
<path d="M1194 1279 c-19 -22 -19 -22 4 -8 12 8 22 17 22 21 0 12 -6 9 -26
-13z"/>
<path d="M1346 1405 c-10 -8 -23 -12 -30 -9 -14 6 -59 -34 -51 -46 3 -4 -1
-10 -7 -13 -10 -3 -10 -7 -1 -18 10 -12 8 -22 -7 -47 -11 -18 -23 -32 -27 -33
-5 -1 -19 -2 -33 -3 -14 -2 -36 -9 -50 -16 l-24 -13 19 29 c13 20 14 25 3 16
-12 -10 -17 -10 -27 1 -6 8 -10 16 -8 18 1 2 -4 -2 -10 -10 -14 -16 -15 -16
-18 17 -1 12 1 22 5 22 4 0 7 7 7 16 0 14 -2 15 -11 2 -6 -8 -18 -14 -27 -13
-10 2 -16 -4 -15 -13 1 -12 -8 -16 -34 -16 -44 1 -63 6 -72 19 -4 5 -10 6 -15
2 -4 -5 -3 -11 3 -15 6 -4 5 -12 -5 -22 -18 -17 -30 -18 -48 -7 -8 5 -13 4
-13 -2 0 -6 5 -11 10 -11 6 0 9 -3 9 -7 -4 -25 2 -36 12 -26 8 8 18 7 36 -2
14 -7 35 -12 46 -9 11 2 27 -2 34 -8 8 -6 13 -7 12 -2 -4 23 2 35 14 27 12 -8
17 -9 38 -12 5 0 8 -4 6 -9 -3 -4 8 -7 23 -7 16 -1 26 3 24 7 -5 7 10 12 29 9
4 0 7 4 7 10 0 5 5 7 11 3 8 -4 7 -9 -2 -16 -11 -8 -11 -9 1 -5 8 2 15 11 14
19 -1 8 4 15 11 15 7 0 11 -6 8 -14 -3 -7 0 -13 7 -13 6 0 9 4 5 9 -3 5 0 13
6 17 7 4 10 3 6 -2 -3 -5 2 -18 10 -29 15 -19 15 -19 8 4 -6 20 -4 23 9 18 14
-6 15 -3 5 14 -9 17 -8 20 2 14 8 -6 10 -4 5 6 -4 8 -1 6 7 -4 10 -12 17 -15
22 -7 4 6 -1 18 -11 26 -15 11 -16 13 -3 8 25 -8 35 17 14 33 -14 9 -15 13 -4
13 12 0 12 2 -1 10 -13 9 -13 10 0 10 10 0 11 3 4 8 -8 5 -6 13 6 25 17 17 18
17 17 1 -1 -9 5 -19 13 -22 12 -4 13 -3 2 10 -10 13 -10 17 3 22 9 3 18 -1 21
-9 4 -8 10 -12 16 -9 5 3 4 12 -4 22 -11 13 -11 14 1 7 9 -5 12 -4 8 2 -3 5 0
10 8 10 11 0 12 -4 4 -14 -8 -9 -8 -13 -1 -13 6 0 13 4 17 10 3 6 15 5 31 -2
18 -8 21 -14 12 -20 -10 -6 -9 -8 4 -8 9 0 20 -5 24 -12 5 -8 2 -9 -9 -5 -9 3
-19 2 -21 -2 -3 -5 5 -8 17 -7 12 1 21 7 20 14 -2 7 2 12 8 12 8 0 7 5 -1 15
-7 9 -15 13 -18 11 -2 -3 -18 2 -34 10 -42 22 -61 24 -82 9z m-56 -115 c0 -5
-4 -10 -10 -10 -5 0 -10 5 -10 10 0 6 5 10 10 10 6 0 10 -4 10 -10z m-330 -26
c0 6 7 1 16 -10 15 -19 16 -19 10 1 -6 20 -6 20 9 1 18 -23 19 -36 4 -36 -5 0
-7 -5 -3 -12 4 -7 3 -8 -5 -4 -6 4 -9 11 -6 16 3 5 1 11 -5 15 -9 5 -14 -7
-11 -27 0 -5 -8 -5 -38 1 -2 1 2 7 9 15 9 12 8 15 -9 13 -14 -1 -20 -6 -16
-15 2 -7 0 -10 -5 -7 -15 10 -12 22 12 45 16 15 24 17 30 8 4 -7 8 -9 8 -4z
m100 -18 c-19 -19 -10 -27 14 -11 19 13 25 13 34 2 6 -7 8 -17 4 -23 -8 -13
-42 -15 -42 -3 0 4 -9 6 -20 4 -11 -2 -22 0 -25 6 -11 16 -14 50 -5 44 5 -3
12 -1 15 5 5 8 11 7 21 -1 10 -8 12 -15 4 -23z m-170 -16 c0 -5 -5 -10 -11
-10 -5 0 -7 5 -4 10 3 6 8 10 11 10 2 0 4 -4 4 -10z"/>
<path d="M927 1253 c-3 -5 6 -9 20 -10 19 -1 22 1 12 8 -17 11 -26 11 -32 2z"/>
<path d="M1032 1257 c-6 -7 -8 -18 -4 -24 6 -9 11 -6 20 7 13 22 0 36 -16 17z"/>
<path d="M1081 1231 c-10 -6 -9 -10 3 -14 8 -3 18 -2 21 3 8 13 -9 20 -24 11z"/>
<path d="M1788 1402 c-3 -10 -2 -26 3 -34 6 -12 0 -14 -36 -13 -24 1 -42 -1
-40 -5 3 -4 -7 -7 -20 -7 -14 0 -28 3 -31 8 -3 5 -14 4 -25 -1 -11 -6 -17 -15
-14 -21 4 -5 1 -9 -4 -9 -6 0 -11 5 -11 10 0 6 -5 10 -11 10 -8 0 -8 -4 -2
-12 13 -18 11 -43 -4 -43 -6 0 -15 -3 -19 -8 -4 -4 -16 0 -26 10 -13 12 -18
13 -18 3 0 -9 -5 -7 -14 6 -10 12 -11 23 -5 31 7 7 6 13 0 17 -6 4 -8 14 -4
24 3 9 -4 2 -16 -15 -25 -40 -66 -41 -65 -2 0 34 -16 41 -47 18 -26 -19 -28
-19 -39 -2 -10 16 -11 16 -6 1 6 -22 -11 -33 -28 -19 -10 8 -13 6 -12 -12 1
-12 5 -28 10 -35 4 -7 3 -19 -3 -26 -6 -7 -8 -16 -4 -19 9 -9 -17 -38 -28 -31
-5 3 -8 0 -7 -8 2 -7 -1 -12 -7 -11 -5 1 -11 -10 -12 -24 0 -16 2 -21 7 -14 5
10 9 9 13 -2 4 -11 0 -15 -13 -12 -10 2 -23 -2 -29 -8 -7 -9 10 -12 71 -12 44
0 82 -3 85 -8 3 -4 11 -3 19 4 8 6 14 7 14 3 0 -5 38 -10 85 -10 46 0 82 3 79
8 -3 4 -10 6 -15 3 -5 -4 -9 -1 -9 4 0 13 -22 10 -32 -4 -5 -6 -8 -5 -8 4 0
11 -3 11 -17 0 -11 -10 -14 -10 -9 -1 4 6 3 12 -3 12 -5 0 -13 -5 -16 -10 -4
-6 -11 -8 -16 -4 -5 3 -7 10 -4 15 4 5 1 9 -6 9 -8 0 -8 4 1 15 8 9 9 15 2 15
-18 0 -23 -19 -12 -40 11 -21 11 -21 -19 -5 -29 14 -30 14 -25 -2 5 -16 4 -16
-8 -3 -17 20 -53 26 -43 8 6 -10 5 -11 -6 0 -16 15 -33 16 -23 0 4 -7 3 -8 -4
-4 -9 5 -9 13 -2 26 14 26 13 29 -7 25 -10 -2 -20 -4 -23 -4 -3 -1 2 -5 10
-11 8 -5 11 -12 7 -17 -5 -4 -12 -1 -17 6 -5 9 -1 24 13 43 14 19 23 24 28 16
4 -7 5 -16 3 -20 -3 -4 3 -8 12 -8 10 0 14 3 11 7 -4 3 -1 13 6 21 10 13 9 15
-5 10 -21 -9 -31 2 -17 19 9 10 8 13 -2 13 -11 0 -11 2 1 10 13 9 13 11 0 20
-13 8 -13 11 -1 22 10 9 12 10 7 1 -5 -9 -2 -11 10 -6 13 5 15 2 9 -16 -4 -14
-2 -23 8 -27 16 -6 17 -20 4 -41 -5 -8 -4 -13 2 -13 10 0 13 7 10 26 0 4 5 10
11 14 9 5 6 10 -9 15 -16 5 -20 12 -16 25 4 12 -1 22 -12 29 -15 10 -14 10 9
7 14 -2 29 -2 32 2 12 12 36 11 29 -1 -4 -7 -8 -15 -9 -19 -1 -5 -2 -11 -3
-14 0 -4 -7 -1 -15 6 -12 9 -15 8 -13 -8 2 -27 34 -24 41 3 4 12 9 16 13 10 9
-13 23 -13 42 -1 10 6 12 5 7 -2 -4 -7 -2 -12 5 -12 8 0 7 -5 -2 -17 -12 -14
-12 -16 1 -11 8 3 14 12 14 21 -1 9 3 14 8 11 5 -3 7 -13 4 -21 -3 -8 -2 -11
4 -8 5 3 7 -4 5 -15 -2 -11 0 -18 5 -15 6 3 7 0 4 -8 -3 -8 0 -18 7 -23 8 -4
10 -3 5 5 -13 20 13 40 47 35 20 -2 27 0 18 5 -9 6 -10 11 -2 15 6 4 11 3 11
-3 0 -12 19 -9 45 8 17 10 17 12 2 7 -24 -8 -54 19 -32 28 8 3 17 1 20 -4 4
-6 12 -10 18 -10 7 1 2 9 -11 20 -21 17 -21 19 -3 17 11 0 18 -4 16 -7 -2 -3
12 -6 31 -6 18 -1 31 2 29 7 -3 4 0 11 6 15 7 4 9 3 5 -4 -3 -6 -2 -13 4 -17
5 -3 10 0 10 7 0 10 3 9 9 -2 6 -8 7 -18 4 -24 -3 -5 -1 -6 5 -2 6 4 9 13 6
20 -3 8 -1 17 5 20 13 8 43 -23 34 -37 -4 -6 0 -8 10 -4 9 3 19 2 22 -4 4 -5
1 -8 -6 -7 -6 2 -12 -7 -14 -19 -1 -12 2 -20 7 -17 5 4 7 12 4 19 -3 9 2 12
15 10 10 -2 19 1 19 6 0 6 5 7 11 3 8 -4 7 -9 -2 -16 -11 -8 -11 -9 1 -5 22 6
18 32 -4 30 -10 -1 -27 7 -38 17 -19 17 -19 18 -1 29 10 6 13 11 6 11 -6 0
-15 -5 -19 -11 -4 -8 -9 -7 -15 2 -5 8 -2 20 6 29 9 10 11 20 5 30 -9 13 -10
13 -10 0 0 -12 -2 -12 -9 -2 -6 11 -9 9 -13 -6z m27 -12 c-3 -5 -12 -10 -18
-10 -7 0 -6 4 3 10 19 12 23 12 15 0z m-421 -34 c-10 -8 -21 -12 -23 -10 -3 2
4 11 15 18 10 8 21 12 23 10 3 -2 -4 -11 -15 -18z m111 -26 c-3 -5 -12 -10
-18 -10 -7 0 -6 4 3 10 19 12 23 12 15 0z m45 -58 c0 -13 -12 -22 -22 -16 -10
6 -1 24 13 24 5 0 9 -4 9 -8z"/>
<path d="M1936 1411 c-3 -4 5 -18 18 -30 17 -16 23 -31 21 -52 -5 -34 8 -45
26 -22 12 15 12 16 -6 9 -16 -6 -17 -5 -8 5 9 9 9 18 -2 39 -11 22 -11 27 0
27 7 0 11 -6 8 -14 -3 -7 0 -13 7 -13 6 0 9 -4 6 -9 -3 -4 2 -17 10 -27 9 -10
13 -13 9 -7 -4 9 -1 11 9 7 9 -3 16 -1 16 5 0 6 -3 10 -7 10 -17 -3 -33 1 -32
9 1 4 0 10 -1 15 -1 4 -3 13 -4 20 0 6 -14 12 -31 12 -19 0 -29 5 -27 13 2 14
-4 16 -12 3z"/>
<path d="M2479 1393 c-1 -2 -3 -7 -4 -13 -1 -5 -4 -13 -5 -17 -1 -5 -2 -11 -1
-15 1 -8 -15 -12 -31 -9 -5 0 -8 -4 -8 -10 0 -6 7 -8 16 -5 10 4 13 2 9 -7 -4
-6 0 -3 9 7 8 10 13 23 10 27 -3 5 0 9 6 9 7 0 10 6 7 13 -3 8 1 14 8 14 8 0
11 -7 7 -16 -5 -13 -3 -14 10 -3 13 10 17 10 22 -3 3 -9 -1 -18 -9 -21 -8 -4
-15 -10 -15 -16 0 -5 5 -6 12 -2 6 4 8 3 5 -3 -5 -8 16 -10 42 -4 2 1 -2 8 -9
16 -6 8 -9 18 -7 23 11 16 -12 36 -42 37 -17 1 -32 0 -32 -2z"/>
<path d="M150 1370 c0 -5 5 -10 11 -10 5 0 8 -4 5 -8 -7 -12 42 -54 54 -47 6
4 10 1 10 -5 0 -6 4 -9 9 -6 5 4 11 1 13 -6 3 -8 6 -7 10 3 3 9 1 16 -5 17
-34 3 -52 11 -49 22 2 8 -3 10 -13 6 -10 -3 -14 -2 -10 5 4 6 14 8 22 5 8 -3
12 -2 9 2 -3 5 1 9 9 9 11 0 12 -4 4 -13 -7 -8 -7 -14 1 -19 9 -6 12 -2 14 28
1 14 -22 17 -47 5 -12 -6 -19 -4 -23 7 -7 17 -24 21 -24 5z"/>
<path d="M2364 1373 c4 -8 2 -13 -5 -13 -7 0 -9 -3 -6 -7 4 -3 1 -13 -6 -21
-8 -11 -8 -14 0 -9 6 4 14 3 18 -3 4 -6 10 -8 15 -5 4 3 10 -2 14 -10 6 -17
-9 -29 -24 -20 -6 4 -9 1 -8 -6 3 -12 -2 -15 -37 -18 -8 0 -15 -5 -15 -11 0
-5 7 -10 15 -10 8 0 15 5 15 12 0 6 6 3 14 -7 8 -11 12 -23 10 -27 -3 -4 2 -5
11 -2 12 5 13 9 4 20 -9 11 -8 18 1 29 13 15 35 11 25 -6 -3 -5 1 -6 9 -3 14
5 14 8 0 29 -11 18 -12 25 -3 31 8 5 9 3 4 -6 -5 -9 -4 -11 3 -6 8 5 10 1 6
-11 -4 -14 -3 -15 4 -4 7 9 12 10 16 2 4 -6 2 -11 -4 -11 -6 0 -8 -5 -4 -11 4
-8 12 -2 21 15 12 23 17 25 30 14 9 -7 18 -12 20 -10 1 1 3 0 3 -3 0 -3 0 -11
0 -17 0 -7 -9 -2 -20 12 -11 14 -20 20 -20 15 0 -6 6 -17 13 -24 10 -11 9 -12
-2 -6 -10 5 -12 4 -7 -4 4 -6 11 -9 16 -6 4 3 11 -2 14 -11 4 -10 13 -13 26
-9 11 4 20 2 20 -4 0 -6 5 -11 11 -11 5 0 7 6 3 13 -5 8 -3 8 9 -2 9 -7 14
-17 11 -22 -3 -5 2 -9 11 -9 10 0 13 5 9 12 -5 7 -3 8 5 3 10 -6 11 -3 1 14
-6 12 -15 19 -21 16 -13 -9 -29 3 -23 18 5 15 41 20 49 6 9 -13 25 -11 25 3 0
6 -3 8 -7 5 -3 -4 -15 0 -25 10 -10 9 -18 12 -18 6 0 -6 -8 -9 -17 -8 -61 8
-88 39 -56 63 17 13 17 13 -2 10 -27 -4 -36 -19 -22 -37 10 -12 9 -13 -1 -7
-7 4 -19 2 -27 -4 -11 -9 -19 -7 -37 12 -34 34 -73 65 -64 51z m41 -35 c5 4 5
2 2 -5 -7 -11 -44 -11 -39 0 1 4 2 13 2 20 1 7 6 5 14 -5 7 -10 17 -14 21 -10z
m151 -80 c1 -7 -9 -14 -23 -14 -14 -1 -22 3 -20 10 2 6 12 9 22 8 17 -3 17 -2
5 15 -12 15 -12 16 0 6 8 -7 15 -18 16 -25z"/>
<path d="M2070 1339 c-17 -17 -38 -32 -47 -33 -9 -2 -24 -13 -32 -26 -12 -19
-13 -22 -2 -16 10 7 12 5 6 -5 -5 -8 -5 -11 0 -7 4 4 14 3 22 -3 7 -6 13 -8
13 -4 0 4 -8 14 -17 22 -10 8 -12 12 -6 8 9 -4 11 0 7 12 -3 10 1 7 9 -6 9
-15 17 -20 21 -12 4 6 2 11 -4 11 -6 0 -8 5 -4 11 4 8 9 7 16 -2 7 -11 8 -10
4 4 -4 12 -2 16 6 11 7 -5 8 -3 3 6 -5 9 -4 11 4 6 9 -6 8 -13 -3 -31 -14 -21
-14 -24 0 -29 8 -3 12 -2 9 3 -12 21 15 20 30 -1 13 -20 17 -21 25 -8 6 10 10
11 10 3 0 -7 7 -13 15 -13 8 0 15 5 15 10 0 6 -7 11 -15 11 -35 3 -40 6 -37
18 1 7 -2 10 -8 6 -15 -9 -30 3 -24 20 4 8 10 13 14 10 5 -3 11 -1 15 5 4 6
12 7 18 3 8 -5 8 -2 0 9 -7 8 -10 17 -7 20 2 3 -2 8 -10 11 -9 4 -28 -6 -46
-24z m43 -5 c3 -12 -32 -13 -40 -2 -3 6 -1 8 4 5 6 -4 14 1 18 11 7 16 11 12
18 -14z"/>
<path d="M384 1337 c9 -13 13 -27 9 -30 -3 -4 -1 -7 4 -7 6 0 10 -6 9 -12 -3
-21 -16 -38 -29 -37 -8 0 -8 2 1 6 10 4 10 8 1 19 -6 8 -16 14 -21 14 -6 0 -4
-8 3 -17 8 -10 9 -14 2 -10 -6 4 -15 2 -19 -5 -4 -7 -4 -10 1 -6 4 4 14 3 22
-4 7 -6 16 -8 20 -5 3 4 13 1 21 -6 13 -9 14 -9 8 1 -12 20 3 33 25 22 10 -6
19 -8 19 -6 0 3 -12 12 -26 19 -17 9 -23 17 -15 21 6 4 11 2 11 -4 0 -6 5 -8
10 -5 6 3 10 1 10 -6 0 -7 8 -5 22 7 12 10 18 14 15 7 -10 -15 14 -23 36 -11
16 8 17 7 8 -10 -8 -15 -7 -23 3 -31 20 -17 49 24 36 49 -5 10 -6 21 -2 25 4
5 -4 1 -17 -8 -18 -12 -28 -14 -38 -5 -7 6 -13 7 -13 4 0 -4 -9 -2 -19 4 -12
6 -22 6 -26 1 -8 -14 -46 -9 -41 5 3 7 -6 20 -20 29 l-25 16 15 -24z m180 -69
c-9 -14 -23 2 -17 18 4 12 8 13 14 3 4 -7 5 -17 3 -21z"/>
<path d="M2215 1320 c3 -41 0 -44 -44 -42 l-25 1 23 -16 24 -16 -24 -13 c-30
-17 -42 -17 -33 -2 5 7 3 8 -6 3 -8 -5 -19 1 -32 16 -10 14 -16 17 -12 7 4
-13 0 -16 -15 -15 -12 1 -21 6 -21 12 0 5 -4 3 -9 -5 -6 -8 -7 -19 -4 -25 4
-5 -3 -1 -15 9 -12 11 -22 16 -22 11 0 -4 -7 -2 -15 5 -8 7 -14 20 -13 29 4
25 -52 23 -73 -3 -13 -16 -20 -18 -31 -9 -11 10 -17 8 -27 -8 -14 -23 -23 -19
-29 14 -2 12 -5 28 -6 35 -3 18 -26 39 -26 24 0 -7 6 -12 13 -12 7 0 4 -7 -7
-15 -24 -18 -40 -19 -33 -2 3 8 -9 12 -40 13 -24 0 -38 -3 -31 -7 6 -4 16 -5
20 -3 4 3 5 -3 1 -13 -6 -16 -5 -16 10 -4 10 7 17 9 17 3 0 -6 11 -9 24 -8 19
2 23 -1 18 -13 -5 -13 -3 -14 10 -4 19 16 30 6 18 -17 -8 -15 -5 -17 19 -16
16 0 27 5 24 10 -4 5 0 6 7 1 9 -6 11 -4 5 6 -7 11 -6 12 6 3 8 -5 21 -10 29
-9 45 5 43 4 29 22 -12 14 -12 16 0 8 9 -5 12 -4 8 2 -3 5 0 10 8 10 12 0 12
-3 3 -15 -10 -11 -8 -13 7 -10 10 1 20 -3 23 -11 3 -10 -2 -11 -19 -6 -28 9
-24 3 10 -15 15 -8 21 -8 17 -1 -4 6 -2 11 3 11 6 0 10 -10 8 -21 -1 -12 5
-24 13 -27 12 -4 13 -2 3 9 -8 10 -9 20 -3 29 9 13 10 13 11 0 1 -8 1 -18 0
-22 0 -4 8 -6 19 -5 11 1 20 7 20 14 0 6 5 15 12 19 8 5 9 2 5 -9 -3 -9 -1
-19 5 -23 7 -5 8 -2 3 6 -6 9 -4 11 5 5 9 -6 11 -4 5 4 -6 10 -3 11 12 2 11
-6 23 -7 27 -4 3 3 6 0 6 -7 0 -7 3 -10 6 -7 4 3 15 2 25 -4 22 -11 60 3 40
15 -6 4 -11 2 -11 -3 0 -6 -4 -11 -8 -11 -5 0 -9 6 -9 14 0 8 8 13 18 11 14
-3 18 2 16 18 -2 19 3 22 33 22 30 0 35 -3 33 -22 -2 -16 2 -21 16 -18 10 2
24 -1 32 -7 11 -8 10 -9 -3 -4 -11 3 -18 0 -18 -7 0 -8 -3 -8 -9 2 -6 9 -11
10 -15 2 -7 -10 7 -16 29 -11 5 1 18 2 27 3 21 1 32 24 16 33 -7 4 -8 3 -4 -4
9 -15 -3 -15 -33 2 l-24 13 24 16 23 16 -25 -1 c-44 -2 -47 1 -44 42 2 33 0
38 -11 29 -11 -9 -17 -9 -28 0 -11 9 -13 4 -11 -29z m40 -26 c1 -12 -5 -20
-15 -20 -14 0 -18 16 -11 44 3 12 25 -8 26 -24z"/>
<path d="M257 1343 c-11 -10 -8 -35 3 -28 6 4 7 11 4 17 -4 6 -2 8 4 4 5 -3 8
-20 5 -37 -3 -19 -1 -29 6 -25 5 4 12 2 15 -3 4 -5 14 -8 24 -6 9 2 21 4 25 4
5 1 6 5 2 10 -11 19 17 22 37 4 21 -18 21 -18 10 3 -6 12 -9 24 -6 27 4 3 -3
5 -15 4 -11 -1 -21 -5 -21 -10 0 -4 -5 -5 -11 -2 -6 4 -8 13 -6 19 3 7 -1 13
-8 13 -8 0 -13 -8 -12 -18 1 -10 4 -16 7 -14 3 2 6 -5 6 -16 0 -19 -1 -19 -13
-3 -8 11 -13 13 -13 5 0 -7 -5 -9 -11 -5 -6 3 -7 9 -3 13 5 3 11 15 12 26 2
11 1 17 -4 13 -4 -4 -12 -3 -19 2 -7 5 -15 7 -18 3z"/>
<path d="M844 1328 c-5 -7 -10 -22 -11 -33 -2 -11 -9 -24 -15 -30 -8 -7 -9 -5
-5 6 7 21 -11 39 -31 32 -11 -5 -13 -3 -7 8 8 12 6 12 -8 0 -18 -15 -23 -26
-7 -16 6 3 10 1 10 -4 0 -6 5 -10 12 -8 8 1 13 -10 13 -29 1 -26 -2 -31 -22
-31 -17 0 -22 5 -20 21 1 12 -3 20 -10 19 -7 -2 -13 1 -13 6 0 11 -19 9 -38
-3 -8 -5 -21 -1 -34 11 -21 18 -21 18 -9 -5 10 -18 9 -23 -4 -28 -19 -8 -20
-21 0 -21 8 0 11 5 8 10 -4 6 0 8 10 4 10 -4 21 1 27 11 10 15 10 14 5 -4 -4
-17 -1 -21 17 -20 13 1 31 -4 41 -12 13 -12 17 -12 17 -2 0 10 3 10 16 -1 13
-11 17 -10 25 4 5 9 16 14 24 11 8 -4 12 -11 9 -16 -4 -6 -10 -5 -16 3 -8 11
-9 11 -5 -1 6 -23 33 -18 29 5 -2 11 -5 31 -7 43 -3 22 -2 22 13 9 19 -17 58
-4 46 15 -4 5 4 20 18 32 13 11 18 17 11 12 -8 -5 -16 -6 -20 -3 -3 4 -13 1
-21 -5 -11 -10 -17 -9 -27 5 -10 14 -15 15 -21 5z m37 -35 c13 -14 18 -23 12
-19 -8 4 -13 2 -13 -6 0 -10 -3 -9 -9 2 -6 8 -7 18 -4 24 4 5 0 7 -9 4 -9 -4
-15 0 -15 8 0 21 11 17 38 -13z m-45 -41 c0 -10 -8 -18 -16 -18 -9 0 -17 6
-17 13 0 7 4 10 8 7 4 -2 10 0 14 6 9 14 11 13 11 -8z m-109 -7 c0 -8 -4 -12
-9 -9 -5 3 -6 10 -3 15 9 13 12 11 12 -6z"/>
<path d="M1385 1331 c-3 -5 -2 -12 3 -15 5 -3 9 1 9 9 0 17 -3 19 -12 6z"/>
<path d="M1426 1288 c3 -4 9 -8 15 -8 5 0 9 4 9 8 0 5 -7 9 -15 9 -8 0 -12 -4
-9 -9z"/>
<path d="M1457 1285 c-4 -9 -16 -13 -35 -11 -19 3 -29 -1 -30 -10 -1 -8 -3
-21 -4 -29 -2 -16 -25 -28 -38 -20 -5 3 -7 -4 -5 -15 2 -13 -1 -20 -8 -18 -7
2 -15 -1 -17 -6 -3 -5 13 -10 35 -11 23 -1 46 -5 53 -9 8 -4 10 -2 6 7 -6 16
21 42 34 33 5 -3 8 -17 6 -31 -2 -19 1 -23 9 -17 19 15 88 7 132 -15 23 -11
59 -19 85 -19 25 1 48 -3 52 -9 5 -6 8 -6 8 2 0 8 9 9 31 3 26 -8 29 -7 19 5
-7 8 -9 15 -4 15 5 0 1 5 -10 11 -14 9 -20 8 -27 -2 -5 -8 -9 -10 -9 -5 0 5
-7 2 -17 -5 -9 -8 -17 -14 -17 -13 -1 0 -11 6 -23 12 -16 9 -23 9 -26 -1 -4
-9 -6 -9 -6 1 -1 6 -6 12 -12 12 -5 0 -7 -5 -3 -12 4 -7 3 -8 -5 -4 -6 4 -9
11 -6 16 3 5 1 11 -5 15 -5 3 -10 1 -10 -6 0 -8 -3 -9 -13 0 -8 6 -17 7 -22 3
-4 -4 -2 3 4 16 7 12 8 22 4 21 -27 -5 -35 1 -23 16 10 12 10 15 -1 15 -11 0
-11 2 1 9 18 12 35 2 21 -12 -16 -16 -13 -31 4 -17 8 6 19 9 25 5 5 -3 10 -1
10 4 0 6 -5 11 -11 11 -5 0 -7 5 -4 10 3 6 11 10 16 10 6 0 8 -4 5 -8 -2 -4
-1 -14 3 -21 6 -9 11 -10 15 -2 4 6 2 11 -3 11 -6 0 -10 3 -10 8 4 25 -2 34
-15 23 -8 -7 -26 -10 -40 -7 -25 5 -31 -2 -27 -31 1 -7 -2 -13 -7 -13 -13 0
-33 26 -36 47 -2 10 -11 18 -22 18 -13 0 -18 6 -16 18 4 21 -4 23 -11 2z m-1
-28 c8 3 14 0 14 -7 0 -9 3 -10 13 -1 10 8 14 7 14 -4 0 -8 -3 -12 -6 -10 -4
2 -15 -4 -26 -12 -20 -15 -20 -15 3 -8 13 4 22 2 22 -4 0 -6 5 -11 11 -11 5 0
7 5 3 12 -4 7 -3 8 5 4 6 -4 9 -12 6 -17 -4 -5 -3 -9 2 -10 42 -4 61 -14 48
-26 -4 -5 -10 -2 -13 6 -4 11 -6 11 -13 0 -6 -10 -9 -11 -9 -1 0 6 -5 12 -11
12 -5 0 -7 -5 -4 -10 12 -19 -16 -5 -47 22 l-30 28 -18 -22 c-16 -20 -20 -21
-36 -8 -16 13 -17 13 -12 -1 4 -9 1 -16 -6 -16 -7 0 -13 6 -13 14 0 12 11 17
30 14 4 0 7 4 7 10 0 8 5 8 15 -1 10 -8 15 -9 15 -2 0 6 -8 16 -17 21 -11 6
-13 11 -5 11 8 0 10 5 6 13 -5 7 0 6 11 -3 17 -14 18 -13 11 5 -5 15 -4 17 5
8 6 -6 18 -9 25 -6z m314 -127 c0 -5 -5 -10 -11 -10 -5 0 -7 5 -4 10 3 6 8 10
11 10 2 0 4 -4 4 -10z"/>
<path d="M1440 1241 c-8 -6 -19 -7 -25 -4 -5 4 -6 2 -2 -2 11 -13 37 -15 37
-4 0 6 5 7 12 3 7 -4 8 -3 4 4 -9 14 -7 14 -26 3z"/>
<path d="M1482 1194 c10 -10 20 -16 22 -13 3 3 -5 11 -17 18 -21 13 -21 12 -5
-5z"/>
<path d="M1671 1293 c3 -20 -2 -34 -10 -28 -16 9 -23 -13 -10 -36 14 -26 -1
-39 -40 -34 -14 2 -20 2 -13 -1 6 -3 12 -10 12 -15 0 -6 -4 -7 -10 -4 -5 3
-10 1 -10 -5 0 -7 6 -10 14 -7 7 3 18 1 23 -4 5 -5 19 -12 31 -14 12 -3 31 -7
42 -9 11 -3 23 1 27 8 5 7 19 12 32 12 14 0 27 6 29 13 3 10 0 12 -11 8 -14
-5 -15 -2 -5 19 8 18 14 21 20 12 6 -10 10 -10 17 1 7 11 9 11 14 0 4 -11 6
-11 6 0 1 11 5 10 16 -5 9 -10 14 -13 13 -5 -2 7 5 15 15 16 9 2 17 -1 17 -7
0 -6 -7 -8 -14 -5 -9 4 -13 1 -10 -6 7 -20 43 -19 39 1 -3 22 4 34 16 26 6 -4
6 -11 -2 -20 -9 -10 -9 -14 0 -14 6 0 14 7 17 15 5 11 9 12 19 2 9 -9 10 -14
1 -19 -7 -5 -6 -8 4 -8 12 0 12 -2 2 -9 -11 -7 -10 -9 3 -14 9 -4 14 -3 11 1
-3 5 1 9 8 9 8 0 12 -6 9 -14 -3 -7 0 -13 6 -13 6 0 10 3 10 8 -3 20 2 32 12
26 8 -4 7 -9 -2 -15 -10 -6 -10 -9 -2 -9 6 0 15 5 19 11 8 13 -14 29 -32 22
-6 -2 -18 5 -26 16 -8 11 -20 21 -28 23 -8 2 -18 7 -22 12 -4 6 -13 4 -22 -3
-13 -11 -16 -11 -16 0 0 11 -2 11 -10 -1 -7 -11 -10 -11 -10 -2 0 8 -5 10 -12
5 -18 -10 -88 -12 -88 -1 0 4 -5 8 -11 8 -8 0 -7 -5 2 -16 10 -12 10 -17 0
-23 -7 -5 -12 -11 -12 -15 3 -17 0 -26 -6 -25 -5 1 -10 0 -13 -1 -3 -1 -15 -3
-27 -4 -17 -2 -20 1 -14 13 10 19 3 43 -10 35 -5 -3 -10 0 -10 5 -3 21 -4 26
-13 40 -6 9 -5 12 2 7 6 -3 16 2 22 11 10 16 11 16 6 1 -6 -22 10 -33 18 -13
3 8 11 15 18 14 10 0 10 -2 1 -6 -20 -7 -15 -19 7 -20 12 -1 18 3 14 9 -4 6 1
6 14 -1 27 -14 29 -14 36 5 5 14 4 15 -8 5 -11 -9 -17 -9 -28 2 -7 7 -24 13
-37 12 -12 -1 -25 4 -28 12 -5 14 -24 19 -22 6z m7 -114 c-7 -5 -8 -9 -3 -9 6
0 4 -4 -4 -9 -8 -5 -20 -7 -28 -4 -11 5 -11 9 3 24 9 10 23 15 31 12 12 -5 12
-7 1 -14z"/>
<path d="M1655 1179 c-4 -6 -5 -12 -2 -15 2 -3 7 2 10 11 7 17 1 20 -8 4z"/>
<path d="M467 1274 c-3 -3 -3 -12 0 -20 6 -17 -1 -18 -27 -4 -16 9 -18 8 -14
-5 4 -9 9 -14 12 -11 2 3 14 1 25 -5 14 -8 18 -8 13 0 -4 6 -3 11 3 11 5 0 8
7 7 15 -3 18 -11 27 -19 19z"/>
<path d="M1333 1273 c4 -3 3 -11 -3 -17 -6 -8 -3 -12 10 -12 15 0 16 4 9 18
-5 10 -13 18 -16 18 -3 0 -3 -3 0 -7z"/>
<path d="M2385 1260 c-4 -6 -1 -18 7 -27 7 -9 12 -18 11 -20 -2 -1 0 -3 5 -2
4 0 6 7 4 16 -2 8 1 12 7 8 6 -3 11 -12 11 -18 0 -7 9 -13 19 -14 15 -1 18 4
16 25 -2 24 -2 25 11 7 11 -15 11 -21 1 -33 -10 -13 -9 -14 3 -10 8 3 14 14
13 24 -1 18 -1 18 13 -1 12 -16 17 -17 23 -7 7 11 10 10 15 -3 3 -9 11 -13 17
-9 8 5 9 3 4 -7 -5 -8 -4 -10 0 -6 14 13 14 36 0 31 -7 -3 -16 0 -20 5 -3 6
-11 9 -16 6 -5 -4 -22 3 -38 14 -34 25 -45 26 -38 6 7 -18 -9 -30 -19 -14 -4
8 -3 9 4 5 8 -5 10 -1 5 9 -3 9 -9 13 -12 8 -3 -4 -14 -9 -25 -11 -14 -3 -17
1 -13 12 7 18 2 21 -8 6z"/>
<path d="M2210 1254 c0 -6 5 -15 12 -22 8 -8 8 -12 1 -12 -5 0 -9 -10 -8 -22
4 -33 3 -33 28 -34 19 -1 23 3 23 27 0 16 -4 29 -10 29 -6 0 -5 5 2 12 7 7 12
16 12 22 0 5 -7 1 -15 -10 -15 -19 -15 -19 -30 0 -8 11 -15 15 -15 10z m43
-49 c7 -16 -8 -29 -23 -20 -10 6 -2 35 10 35 4 0 10 -7 13 -15z"/>
<path d="M2230 1250 c0 -5 5 -10 10 -10 6 0 10 5 10 10 0 6 -4 10 -10 10 -5 0
-10 -4 -10 -10z"/>
<path d="M1672 1239 c2 -8 11 -20 21 -27 10 -8 16 -19 15 -26 -4 -16 3 -19 25
-10 14 5 15 9 6 21 -7 8 -8 13 -3 11 5 -2 10 0 12 5 1 4 0 7 -3 7 -3 0 -12 0
-21 0 -9 0 -12 -5 -8 -12 4 -7 3 -8 -4 -4 -6 4 -8 14 -5 24 3 9 3 14 -2 10 -4
-4 -14 -3 -22 4 -11 9 -13 8 -11 -3z"/>
<path d="M2960 1231 c-6 -12 -15 -19 -21 -16 -5 4 -9 1 -9 -6 0 -7 -3 -9 -6
-6 -4 3 -16 1 -27 -5 -16 -8 -23 -7 -34 8 -7 10 -13 12 -13 6 0 -19 4 -27 12
-25 4 2 4 -5 1 -15 -6 -15 -4 -15 15 2 12 11 22 16 22 12 0 -3 14 0 30 9 17 9
30 13 30 9 0 -4 7 -1 15 6 14 12 18 7 17 -20 0 -3 11 -14 26 -24 14 -11 22
-14 18 -7 -5 7 -2 10 6 9 8 -2 12 5 10 17 -2 17 -1 18 10 5 15 -17 43 -26 33
-10 -4 6 1 7 10 3 9 -3 13 -9 8 -12 -12 -9 -14 -31 -2 -31 5 0 7 -4 4 -10 -3
-5 -2 -10 3 -10 5 0 15 11 22 25 7 13 17 22 22 19 4 -3 8 0 8 5 0 6 -10 10
-22 8 -15 -1 -22 3 -20 11 1 8 -3 12 -10 9 -7 -2 -21 2 -30 11 -14 12 -18 12
-18 2 0 -7 -3 -10 -7 -7 -3 4 -17 0 -30 -8 -22 -15 -25 -13 -25 15 0 3 -8 13
-18 23 -18 18 -19 18 -30 -2z m11 -14 c-10 -9 -11 -8 -5 6 3 10 9 15 12 12 3
-3 0 -11 -7 -18z m73 -35 c3 -5 -1 -9 -9 -9 -8 0 -12 4 -9 9 3 4 7 8 9 8 2 0
6 -4 9 -8z m91 -21 c3 -5 2 -12 -3 -15 -5 -3 -9 1 -9 9 0 17 3 19 12 6z"/>
<path d="M2714 1223 c3 -6 2 -14 -4 -18 -6 -4 -7 -11 -4 -17 5 -7 1 -9 -9 -5
-9 3 -19 2 -22 -4 -4 -5 -10 -7 -15 -4 -4 3 -11 -2 -14 -11 -6 -15 -3 -15 20
1 15 9 24 13 21 8 -4 -5 0 -10 8 -10 8 0 15 5 15 10 0 6 3 7 6 4 4 -3 15 -2
25 4 14 7 17 6 13 -4 -3 -8 -11 -14 -19 -15 -8 -1 -22 -3 -30 -4 -9 -1 -14 -6
-12 -12 3 -6 11 -9 18 -7 8 2 20 4 27 4 6 0 12 4 12 9 0 5 5 6 11 3 6 -5 4
-11 -7 -19 -15 -11 -15 -13 0 -13 9 0 16 4 16 9 0 5 10 6 23 3 15 -4 18 -3 8
3 -9 7 -10 12 -2 16 6 4 11 2 11 -5 0 -10 3 -10 12 -1 7 7 17 12 23 12 5 0 4
-4 -3 -9 -11 -7 -10 -9 3 -14 9 -4 14 -3 11 1 -2 4 10 8 27 8 48 3 72 10 70
23 -2 6 2 11 8 11 6 0 8 -7 5 -16 -3 -8 -2 -12 4 -9 5 3 7 0 4 -8 -3 -8 0 -18
6 -22 7 -4 9 2 6 19 -4 20 -1 24 12 19 11 -5 12 -8 4 -11 -10 -3 -10 -7 -1
-18 11 -14 2 -19 -24 -15 -5 1 -6 -2 -3 -7 2 -4 -6 -8 -19 -8 -13 0 -22 4 -19
8 3 4 -1 6 -8 5 -7 -2 -10 -2 -5 0 4 3 4 9 1 14 -3 6 -12 2 -21 -8 -8 -10 -12
-13 -9 -7 3 6 -1 11 -9 11 -8 0 -12 -5 -8 -10 3 -5 -4 -4 -14 2 -11 6 -23 7
-27 4 -3 -3 -6 -1 -6 6 0 7 -5 9 -11 5 -8 -4 -3 -11 12 -20 24 -13 24 -13 2
-11 -13 1 -23 4 -23 8 0 11 -60 5 -60 -6 0 -5 -8 -1 -16 10 -14 18 -16 19 -27
4 -10 -13 -14 -14 -25 -3 -6 7 -9 21 -6 31 6 15 4 15 -9 -2 -8 -11 -13 -23
-10 -28 8 -13 -21 -3 -32 11 -9 11 -14 11 -26 -4 -12 -16 -12 -17 3 -11 10 3
20 2 22 -2 3 -5 -5 -8 -17 -7 -16 1 -21 7 -19 21 2 18 0 17 -18 -5 l-20 -25 4
27 c3 20 1 25 -9 22 -7 -3 -12 -13 -10 -23 2 -10 -3 -18 -11 -18 -8 0 -14 4
-14 9 0 4 5 8 11 8 5 0 7 5 3 11 -4 8 -9 7 -15 -2 -5 -8 -9 -9 -9 -4 0 6 -7 1
-15 -9 -10 -13 -15 -15 -15 -6 0 7 -3 10 -6 7 -4 -3 -16 -2 -27 4 -14 8 -18 8
-13 0 5 -7 1 -9 -8 -5 -9 3 -13 10 -10 15 3 5 0 9 -6 9 -7 0 -9 -7 -6 -16 3
-8 2 -12 -3 -9 -5 3 -12 1 -16 -4 -3 -5 -14 -9 -25 -8 -10 1 -16 5 -13 11 4 5
1 6 -7 1 -9 -6 -11 -4 -5 6 7 11 6 12 -6 2 -11 -9 -18 -8 -33 3 -11 8 -14 14
-8 14 7 0 11 6 10 13 -2 6 4 13 12 13 8 1 18 3 23 4 4 1 12 4 17 5 6 1 11 3
13 5 11 9 40 6 52 -7 14 -13 19 -10 16 10 -1 5 3 6 9 2 6 -3 8 -11 4 -16 -6
-10 35 -6 58 6 7 4 5 0 -4 -8 -23 -18 -23 -22 2 -24 11 -1 18 2 16 6 -7 11 12
36 21 28 4 -5 1 -12 -6 -16 -9 -6 -10 -11 -2 -15 6 -4 11 -3 11 1 0 5 9 9 20
10 11 1 20 -3 20 -8 0 -6 5 -7 10 -4 6 4 8 10 5 15 -3 5 0 12 6 16 8 4 9 3 5
-4 -4 -7 -2 -12 3 -12 6 0 11 4 11 8 0 16 -13 21 -30 12 -12 -7 -21 -6 -29 4
-8 10 -56 15 -56 6 0 -1 -12 -4 -28 -6 -15 -1 -25 1 -23 5 3 4 -8 8 -25 9 -63
4 -89 1 -89 -8 0 -4 -11 -7 -24 -6 -14 0 -25 -2 -25 -7 0 -4 -7 -20 -15 -36
-9 -16 -12 -32 -8 -36 4 -4 -3 -3 -14 3 -12 6 -23 9 -26 7 -2 -2 -4 4 -4 14 0
14 7 18 23 16 12 -1 20 2 17 7 -3 5 -12 7 -20 4 -7 -3 -18 3 -23 13 -7 12 -19
17 -36 16 -14 -2 -25 0 -25 4 0 10 -25 13 -90 9 -21 -1 -27 -5 -20 -12 15 -15
12 -24 -14 -41 -22 -15 -27 -15 -55 -1 -21 11 -29 22 -26 36 4 19 2 19 -20 4
-20 -13 -23 -20 -14 -35 9 -17 5 -23 -13 -20 -4 0 -5 -6 -1 -14 4 -12 8 -13
20 -4 7 7 12 17 9 24 -2 6 2 12 9 12 8 0 11 -7 7 -16 -5 -14 -3 -14 11 -2 12
9 17 10 17 2 0 -7 5 -9 12 -5 6 4 8 3 5 -3 -4 -6 -18 -9 -32 -8 -14 2 -25 0
-25 -5 0 -4 15 -7 34 -7 19 1 33 4 30 8 -2 4 3 9 11 12 10 4 12 1 8 -11 -6
-15 -5 -16 12 -2 11 9 16 10 11 3 -4 -8 -2 -13 7 -13 10 0 13 7 10 20 -3 11
-10 17 -16 13 -6 -3 -7 -1 -3 5 4 6 13 9 21 6 9 -4 13 2 11 19 -2 18 1 24 11
20 9 -4 10 -9 3 -18 -5 -6 -7 -15 -3 -18 13 -14 21 -6 19 17 -3 23 7 28 29 15
6 -4 18 -5 29 -3 14 2 16 0 7 -9 -18 -18 -12 -31 7 -14 10 10 23 13 31 8 10
-6 9 -10 -4 -15 -9 -3 -15 -12 -12 -20 4 -11 -1 -13 -21 -10 -15 3 -33 5 -39
6 -7 1 -13 5 -13 10 0 5 10 7 23 3 20 -5 21 -5 3 6 -16 10 -22 8 -38 -12 -11
-13 -16 -18 -12 -10 5 10 3 12 -6 6 -9 -6 -11 -4 -5 5 5 8 4 11 -3 6 -6 -4 -9
-13 -5 -21 6 -18 33 -20 33 -2 0 8 4 7 10 -3 5 -8 10 -12 10 -9 0 4 18 3 40
-1 22 -4 37 -3 34 1 -6 11 10 12 20 2 3 -4 19 -7 35 -8 21 -1 28 2 23 13 -4
13 -2 13 19 0 20 -12 85 -14 394 -13 204 2 372 3 374 4 2 0 -2 8 -9 16 -7 8
-9 15 -4 15 4 0 -8 12 -27 26 -19 14 -33 29 -32 34 2 5 -6 8 -17 7 -11 -1 -20
-4 -20 -7 0 -4 -6 -7 -12 -8 -28 -2 -47 -8 -61 -20 -13 -11 -17 -10 -25 5 -6
10 -14 15 -18 11 -4 -5 -13 -3 -20 2 -6 6 -22 13 -35 15 -12 3 -27 10 -32 17
-7 10 -8 9 -4 -2 3 -11 -2 -16 -16 -18 -17 -1 -19 1 -7 8 13 8 13 11 1 22 -9
8 -11 9 -7 1z m-166 -58 c-3 -3 -9 2 -12 12 -6 14 -5 15 5 6 7 -7 10 -15 7
-18z m272 -2 c0 -3 -3 -3 -7 0 -3 4 -12 2 -20 -5 -10 -8 -17 -8 -26 1 -9 9 -9
14 3 21 14 8 50 -4 50 -17z m-883 3 c0 -8 -6 -12 -15 -9 -11 5 -11 7 0 14 7 5
13 9 14 9 0 0 1 -6 1 -14z m1009 2 c4 -7 4 -10 -1 -6 -4 4 -16 3 -26 -2 -12
-7 -20 -6 -25 2 -4 6 -3 8 2 5 6 -3 16 -2 24 4 19 11 18 11 26 -3z m87 -41
c14 -21 13 -22 -15 -24 -25 -1 -27 1 -12 12 9 6 14 17 10 23 -13 22 2 12 17
-11z m-828 3 c3 -5 1 -10 -4 -10 -6 0 -11 5 -11 10 0 6 2 10 4 10 3 0 8 -4 11
-10z m520 -20 c3 -5 1 -10 -4 -10 -6 0 -11 5 -11 10 0 6 2 10 4 10 3 0 8 -4
11 -10z"/>
<path d="M2775 1170 c-3 -5 -1 -10 4 -10 6 0 11 5 11 10 0 6 -2 10 -4 10 -3 0
-8 -4 -11 -10z"/>
<path d="M2655 1210 c-4 -6 -14 -9 -23 -8 -12 2 -17 -4 -17 -20 0 -12 -7 -27
-15 -33 -13 -9 -13 -10 1 -6 9 3 22 0 28 -6 8 -8 14 -8 24 2 10 10 8 11 -7 5
-15 -6 -18 -4 -14 8 4 9 2 20 -3 25 -7 7 -2 9 15 8 19 -2 24 1 23 16 -1 22 -3
23 -12 9z"/>
<path d="M1130 1193 c0 -5 3 -13 8 -17 4 -4 7 -13 7 -19 0 -7 12 -12 27 -12
29 -1 66 21 54 32 -4 4 -11 1 -16 -7 -6 -8 -10 -10 -10 -4 0 5 5 15 10 20 13
13 -18 13 -38 0 -7 -4 -19 -2 -27 4 -8 7 -15 8 -15 3z m57 -10 c-4 -3 -1 -13
6 -22 10 -14 10 -14 -4 -4 -12 10 -18 10 -29 0 -8 -6 -6 -2 4 11 11 12 21 22
24 22 3 0 2 -3 -1 -7z"/>
<path d="M1790 1185 c4 -5 7 -21 5 -35 -2 -19 4 -29 21 -37 14 -6 26 -7 30 -2
3 5 10 9 15 9 6 0 7 -4 4 -10 -3 -6 1 -7 9 -4 9 3 14 11 13 17 -1 7 3 11 9 10
9 -2 9 4 1 22 -8 16 -14 20 -19 12 -6 -9 -8 -8 -8 2 0 8 -3 11 -7 7 -5 -4 0
-13 10 -21 15 -11 15 -14 3 -18 -9 -4 -18 -2 -21 3 -4 6 -11 10 -17 10 -7 0
-7 -4 1 -13 8 -10 7 -14 -4 -14 -8 0 -11 5 -8 10 3 6 1 7 -5 3 -6 -3 -13 -2
-16 3 -4 5 -1 13 5 16 5 4 8 13 6 19 -3 7 1 13 8 13 7 0 11 -6 8 -14 -3 -7 0
-13 7 -13 6 0 10 8 8 17 -2 12 -13 17 -35 18 -21 1 -29 -3 -23 -10z"/>
<path d="M2107 1167 c-6 -15 28 -17 40 -1 5 5 4 6 -1 2 -5 -4 -15 -3 -21 2 -9
7 -14 6 -18 -3z"/>
<path d="M2355 1171 c-3 -6 -10 -9 -15 -6 -5 3 -11 1 -15 -4 -3 -6 -12 -8 -20
-5 -9 4 -12 0 -10 -13 2 -10 4 -20 4 -22 1 -3 6 0 13 7 9 9 16 8 31 -5 18 -17
19 -16 36 6 15 19 21 22 38 13 11 -6 23 -8 27 -5 3 3 6 1 6 -4 0 -12 25 -11
37 1 4 4 4 7 -2 6 -20 -4 -36 0 -31 8 3 5 -5 8 -17 7 -12 -1 -31 5 -41 14 -18
15 -19 15 -13 -2 5 -12 3 -16 -5 -11 -7 4 -8 3 -4 -4 5 -8 1 -10 -9 -5 -13 4
-14 8 -4 14 8 4 11 11 7 14 -3 4 -9 1 -13 -4z m-5 -32 c0 -6 -4 -7 -10 -4 -5
3 -10 11 -10 16 0 6 5 7 10 4 6 -3 10 -11 10 -16z"/>
<path d="M3058 1162 c-6 -28 0 -39 31 -54 39 -18 55 -15 27 5 -9 7 -18 21 -20
31 -2 18 -34 32 -38 18z m32 -26 c0 -3 -4 -8 -10 -11 -5 -3 -10 -1 -10 4 0 6
5 11 10 11 6 0 10 -2 10 -4z"/>
<path d="M2165 1140 c-10 -11 -14 -20 -9 -20 5 0 15 9 22 20 7 11 11 20 9 20
-2 0 -12 -9 -22 -20z"/>
<path d="M3193 1137 c0 -12 1 -16 4 -8 4 10 7 10 13 1 5 -8 9 -6 14 6 4 10 4
15 0 11 -4 -4 -12 -3 -18 3 -8 6 -12 2 -13 -13z"/>
<path d="M2930 1140 c0 -15 28 -31 35 -20 3 5 1 10 -5 10 -6 0 -9 4 -6 8 3 5
-1 9 -9 9 -8 0 -15 -4 -15 -7z"/>
<path d="M2230 1130 c0 -5 5 -10 10 -10 6 0 10 5 10 10 0 6 -4 10 -10 10 -5 0
-10 -4 -10 -10z"/>
</g>
</svg>
